<?xml version="1.0" encoding="UTF-8"?>
<svg id="_レイヤー_2" data-name="レイヤー 2" xmlns="http://www.w3.org/2000/svg" xmlns:xlink="http://www.w3.org/1999/xlink" viewBox="0 0 279.73 74.79">
  <defs>
    <style>
      .cls-1, .cls-2 {
        fill: none;
      }

      .cls-3 {
        font-family: AcuminProWide-Semibold, 'Acumin Pro Wide';
        font-size: 13.67px;
        font-weight: 600;
      }

      .cls-4 {
        font-size: 4.72px;
      }

      .cls-4, .cls-5, .cls-6 {
        font-family: SuperclarendonRg-Bold, Superclarendon;
        font-weight: 700;
      }

      .cls-2 {
        stroke: #000;
        stroke-miterlimit: 10;
        stroke-width: .62px;
      }

      .cls-5 {
        font-size: 35.8px;
      }

      .cls-6 {
        font-size: 4.96px;
      }

      .cls-7 {
        clip-path: url(#clippath);
      }
    </style>
    <clipPath id="clippath">
      <circle class="cls-2" cx="37.5" cy="38.35" r="22.48"/>
    </clipPath>
  </defs>
  <g id="_レイヤー_1-2" data-name="レイヤー 1">
    <g>
      <text class="cls-5" transform="translate(80.48 43.32)"><tspan x="0" y="0">BITTERS</tspan></text>
      <text class="cls-3" transform="translate(141.4 60.39)"><tspan x="0" y="0">Liquor Co.</tspan></text>
      <g>
        <g>
          <path d="M37.5,9.74c15.8,0,28.61,12.81,28.61,28.61s-12.81,28.61-28.61,28.61-28.61-12.81-28.61-28.61,12.81-28.61,28.61-28.61M37.5,7.74c-16.88,0-30.61,13.73-30.61,30.61s13.73,30.61,30.61,30.61,30.61-13.73,30.61-30.61S54.38,7.74,37.5,7.74h0Z"/>
          <g>
            <g class="cls-7">
              <g>
                <path d="M27.1,28.74s-.05,0-.09-.02l-.12-.03c-.46-.1-.83-.3-1.26-.69-.1-.09-.34-.34-.37-.39-.02-.06.08-.19.17-.31.12-.16.26-.34.25-.54,0-.09-.08-.29-.13-.36-.03-.04-.09-.1-.18-.17-.05-.04-.1-.09-.12-.11-.08-.1-.12-.27-.09-.32.1,0,.18.09.2.12l.09.08s.09.03.14.03h0c.12,0,.22-.06.27-.17.07-.15.04-.35-.08-.5-.09-.11-.22-.23-.35-.34-.12-.11-.24-.22-.33-.32-.18-.21-.25-.29-.21-.49,0,0,0,0,0,0,0,0,.07-.02.17-.02.06,0,.1,0,.11.01.45.23.93.44,1.37.64l.56.25c.25.1.6.24.74.45.15.23.07.45-.03.72-.04.09-.07.19-.1.28-.04.14-.06.28-.09.42-.04.21-.09.42-.15.6-.07.19-.16.21-.23.21-.13,0-.3-.09-.45-.17-.05-.03-.11-.08-.16-.12-.05-.04-.09-.08-.13-.1-.12-.07-.23-.11-.34-.11-.15.02-.34.21-.35.27-.05.26.02.46.19.55.09.04.28.1.48.16.23.07.65.19.71.26.03.07.02.14,0,.25,0,0-.08,0-.09,0ZM26.32,25.99c-.11,0-.18.05-.21.09-.07.08-.1.19-.09.35.03.38.65.88,1,.89h0c.2,0,.29-.1.33-.15.07-.12.06-.29-.03-.45-.08-.14-.38-.44-.52-.53-.13-.09-.32-.19-.48-.19Z"/>
                <path d="M32.84,31.27c-.14-.02-.28-.22-.28-.29.01-.05.19-.17.25-.18.02,0,.14.06.18.1v.02s.07.14.07.14c0,.01.02.03.03.04-.04.03-.06.06-.08.08-.05.06-.08.1-.16.1Z"/>
                <path d="M40.03,30c-.1,0-.12-.08-.12-.15,0-.12.08-.29.26-.29.02,0,.06,0,.09.08.04.12,0,.26-.03.29l-.18.1v-.03Z"/>
                <path d="M40.69,30.73s-.05,0-.07-.03c-.03-.03-.03-.11,0-.19.04-.13.11-.2.21-.2.06,0,.13.04.15.09.03.06,0,.15-.08.23-.07.08-.15.1-.21.1Z"/>
                <path d="M41.71,31.26c-.13-.04-.13-.11-.13-.16.02-.12.14-.24.24-.24l.08.12s0,.1-.03.15c-.05.08-.09.14-.13.14h-.03Z"/>
                <path d="M40.8,31.62s-.06,0-.08-.03c-.03-.03-.04-.08-.03-.15.01-.1.11-.19.21-.19.06.01.12.09.13.11.01.07-.02.13-.05.17-.05.06-.12.09-.18.09Z"/>
                <path d="M43.18,32.66s-.06-.01-.09-.04c0-.08-.04-.15-.06-.21,0-.13.1-.17.18-.17l.11.06c0,.1-.02.25-.08.33l-.06.03Z"/>
                <path d="M41.98,32.27s-.04,0-.06-.01c-.06-.08-.06-.19-.03-.25.02-.03.05-.07.12-.07.04,0,.08.01.12.03.04.02.04.08.03.11-.02.09-.1.19-.19.19Z"/>
                <path d="M33.62,30.51c-.07,0-.13-.03-.16-.08-.03-.04-.03-.1-.02-.15h.26s.02.03.02.03l.04.1-.14.09Z"/>
                <path d="M34.13,29.92c-.1,0-.18-.09-.19-.21,0,0,.08,0,.1,0,.11.04.13.07.15.13l-.06.09Z"/>
                <path d="M42.8,31.59c-.02-.1.03-.23.07-.31l.12.05s-.05.15-.1.23l-.05.04h-.04Z"/>
                <path d="M31.4,29.45c-.06,0-.11,0-.17-.01-.38-.05-.93-.29-1.19-.61-.14-.17-.18-.25-.25-.44l-.02-.05-.07-.03c-.15-.72.34-1.56,1.07-1.76.15-.04.34-.06.54-.06.31,0,.62.05.86.14.58.23.86.95.79,1.5-.1.69-.84,1.32-1.56,1.32ZM30.24,27.25c-.13,0-.3.21-.31.29-.02.12,0,.6.25.65l.09.02.16-.47c.01-.07.03-.41-.14-.48h-.05Z"/>
                <path d="M42.91,29.36c-.31,0-.59-.09-.84-.27-.51-.37-.82-1.04-.75-1.63.08-.78.81-1.2,1.49-1.2.34,0,.66.1.92.28.14.1.49.49.57.65.16.33.31.98.16,1.31-.07.15-.43.49-.61.59-.31.17-.64.26-.94.26Z"/>
                <path d="M39.36,77.01h-.09s0-.08,0-.11c.06-.31.33-.6.59-.89.3-.32.61-.66.63-1.04,0-.05,0-.21-.02-.27-.02-.06-.29-.33-.35-.35-.07-.02-.26-.02-.36-.02-.11,0-.22,0-.26.01-.23.03-.49.12-.74.21-.23.08-.45.16-.65.19-.03,0-.08,0-.15,0-.16,0-.22-.03-.23-.04l.07-.12c.17-.74.65-1.25,1.51-1.6.44-.18.9-.27,1.43-.27.49,0,.98.07,1.46.14.49.07,1,.15,1.52.15.18,0,.36,0,.54-.03,1.03-.12,2.22-1.52,2.58-2.43.15-.37.29-.9.24-1.29-.02-.16-.12-.28-.28-.37-.34-.18-.96-.27-1.39-.27-.09,0-.18,0-.26.01-.21.03-.45.13-.68.24-.12.06-.24.11-.35.15-.61.21-1.33.32-2.12.32-.58,0-1.19-.06-1.81-.17-.28-.05-.73-.14-.92-.31-.05-.04-.1-.15-.14-.25-.04-.09-.08-.17-.12-.23-.12-.16-.27-.24-.46-.24-.09,0-.19.02-.3.05h-.05s-.05.1-.05.1c-.07-.03-.18-.08-.29-.13-.13-.06-.26-.12-.39-.12h-.05s-.09.05-.09.05l-.03.04v.1s.02.1.02.1l.11.03v.02s.16.14.16.14c.18.11.57.24.86.33l.06.02-.11.02c-.15.03-.3.05-.46.06-.08,0-.16,0-.23,0-.2,0-.39-.01-.59-.02-.13,0-.26-.01-.39-.02.03,0,.07,0,.1-.01.13,0,.28-.01.35-.13.05-.08.05-.18,0-.31l-.03-.07h-.08s-.23,0-.26,0c-.06,0-.08,0-.11,0-.06,0-.11.03-.15.04-.05.02-.09.04-.15.04-.11-.04-.18-.23-.18-.28,0-.09.14-.26.22-.29.31-.13.69-.18,1.06-.23.27-.04.54-.07.78-.14.17.01.38.02.58.02.97,0,2.01-.09,3.27-.27h.03s.09-.1.09-.1c.08-.08.16-.16.16-.35,0-.36-.41-.47-.68-.53-.07-.02-.13-.03-.18-.05-3.51-1.23-5.37-2.78-8.11-5.19-.85-.75-1.72-1.48-2.6-2.22-.89-.75-1.79-1.5-2.66-2.28-1.57-1.39-2.79-3.17-3.96-4.9l-.34-.5c-.98-1.43-1.08-2.29-1.28-4.01-.34-2.88-.36-5.09-.07-7.19.14-1.04.35-2.07.55-3.06.28-1.39.57-2.83.69-4.33.02-.27,0-.56,0-.85-.01-.31-.03-.63,0-.9.03-.3.07-.6.11-.91.2-1.49.42-3.17.09-4.63-.05-.21-.12-.45-.2-.69-.21-.62-.42-1.27-.17-1.71.13-.24.39-.41.79-.51.35-.09.72-.15,1.08-.2.4-.06.81-.13,1.22-.23,1.25-.33,2.42-.82,3.56-1.3,1.1-.46,2.23-.94,3.44-1.27,1.27-.35,2.38-.51,3.5-.51.94,0,1.92.12,3,.36l.17.04c.22.05.64.14.74.18.16.07.39.14.6.2,1.16.33,2.36.81,3.53,1.28.48.19.95.38,1.41.56l.19.07c.75.29,1.6.61,2.43.77.18.03.36.05.55.06.23.02.46.04.67.09.05.02.21.16.23.21.03.11.03.68.01.89-.02.21-.09.41-.17.63-.06.16-.12.33-.15.49-.15.73-.12,1.41-.09,2.14v.23c.02.22.02.44.03.67,0,.42.01.85.06,1.24.33,2.82.94,5.27,1.83,7.28.45,1.02.99,1.97,1.51,2.89.63,1.12,1.28,2.27,1.78,3.55,1.26,3.2,2.01,6.94,2.67,10.5.32,1.74.59,3.54.86,5.28.18,1.19.36,2.38.56,3.57.15.91.27,1.42.63,2.28.2.48.39.96.59,1.45.34.85.68,1.72,1.09,2.6l.13.27c.15.3.32.63.36.92,0,.06,0,.14,0,.21,0,.08-.01.17,0,.26.03.17.22.52.45.91l.12.21c.16.29.32.57.49.86.16.28.33.56.48.85l.06.12c.09.17.38.68.4.76-.05.15-.11.19-.19.23-.11.06-.23.13-.28.26,0-.02,0-.02-.02-.02-.03,0-.07.02-.12.04-.09.04-.17.08-.25.08l-.09-.06c-.19-.08-.43-.23-.71-.45-1.5-1.17-2.98-3.23-3.79-4.64l.1-.32-.33.11-.05.04-.07.11v.02s.05.11.05.11c.43,1.93,2.75,4.14,3.99,5.32.11.08.18.13.19.16-.3.2-.41.29-.53.29-.08,0-.19-.04-.33-.12-.23-.13-.51-.34-.77-.53l-.34-.25c-.91-.64-1.46-1.09-2.16-1.95-.07-.08-.14-.13-.2-.16-.04-.03-.08-.05-.1-.08l-.04-.05-.19.04-.04.14c.16.41.41.8.75,1.19.44.51,1.02.94,1.54,1.32.12.09.23.17.35.25.16.11.31.21.46.33v.03s-1.46-.79-1.46-.79c-1.68-1.2-3.58-2.14-5.26-2.96-.52-.25-1.02-.47-1.58-.7-.13-.05-.26-.11-.39-.17-.54-.24-1.11-.49-1.69-.49-.33,0-.63.08-.91.24-.51.3-1,1.18-.97,1.75.02.35.25.42.45.48l.02.06h.07c.09.04.4.06.92.09.08,0,.15,0,.23,0,.28,0,.55-.02.82-.04.27-.02.54-.04.81-.04.11,0,.21,0,.32.01.03.05.02.17.01.34,0,.13-.02.26.06.34l.03.04.15.04c.08,0,.17-.02.3-.07.03-.01.08-.04.16-.11l.11-.07c.12-.07.2-.11.25-.13.02.15.02.29-.04.38-.03.05-.09.08-.16.09l-.41.06c-.38.05-.75.11-1.12.21-.35.09-.7.21-1.05.33,0,0,0,0,0,0,.04-.04.06-.09.07-.15v-.1s-.09-.02-.09-.02c-.04,0-.08-.02-.11-.03-.07-.02-.14-.05-.24-.05-.13.01-.16.05-.19.07l-.22-.04.06.22c.07.13.24.19.39.2-.36.12-.72.23-1.08.3-.33.07-.67.1-1,.14-.26.03-.52.06-.77.1-1.55.25-3.13.79-4.65,1.32l-.36.12c-.13.05-.26.1-.39.15-.23.09-.46.18-.71.24-.31.07-.63.11-.95.16-.4.06-.8.11-1.19.21h-.06s-.05.11-.05.11v-.03ZM40.16,76.13c-.14.12-.13.22-.11.27.03.1.15.16.29.16h0c.08,0,.16-.02.23-.06l.07-.04v-.16c-.03-.07-.08-.15-.15-.19-.06-.03-.1-.06-.16-.06h-.04l-.13.07ZM41.47,75.45l-.07.05.03.08c.15.37.55.52.87.61l.1.03.05-.17-.07-.14c-.09-.12-.35-.34-.46-.38-.02,0-.27-.1-.37-.1h-.04l-.05.03ZM42.03,74.87l-.03.04.02.16.02.05.09.04c.02.15.04.2.06.24.18.28.65.36.9.36h.18v-.16c-.05-.12-.16-.16-.25-.2-.19-.11-.29-.2-.39-.28-.08-.07-.16-.14-.24-.2-.11-.08-.18-.11-.24-.11h-.05l-.06.06ZM43.86,74.57l-.02.07c-.02.06-.02.15.07.26.12.16.37.29.54.29h.03l.1-.04.09-.17.04-.11-.12-.03s-.07-.05-.09-.08c-.19-.14-.33-.21-.49-.21h0l-.14.02ZM41.12,73.83c-.16.24-.06.35-.02.39.13.35.23.56.71.59h.07s.07-.12.07-.12v-.13c-.19-.2-.38-.39-.57-.57-.05-.08-.1-.16-.22-.16h-.04ZM45.52,74.03v.07c0,.08.09.17.16.23.35.26.68.38.99.38.05,0,.11,0,.16-.01h.02s.1-.05.1-.05l.13.04.08-.16v-.05s-.03-.1-.03-.1l-.12-.04c-.26-.03-.36-.08-.54-.16l-.87-.21-.08.07ZM43.86,74.03l-.03.05.02.13c.06.16.45.42.7.42h0c.12,0,.21-.05.26-.14l.05-.09-.19-.12c-.11-.07-.23-.14-.35-.2l-.21-.09-.11-.02h-.06l-.08.07ZM41.98,73.11c-.08.1-.05.32-.04.39.03.15.21.58.31.7.11.13.34.23.58.32.06.03.1.05.16.05l.16-.05-.04-.14-.29-.32c-.19-.24-.36-.49-.53-.75l-.08-.08.03-.1-.08-.06h-.06s-.05-.01-.05-.01l-.07.06ZM38.56,73.67c-.15,0-.28.07-.36.2-.08.13-.09.31-.01.46.12.07.22.09.32.09.17,0,.29-.04.36-.12.04-.04.08-.12.07-.24,0-.05-.13-.33-.23-.36-.05-.02-.1-.03-.15-.03ZM39.68,73.29l.03.23c.07.21.54.59.71.6h0c.12,0,.23-.05.24-.15.01-.14-.53-.58-.54-.58l-.17-.09-.1-.02h-.18ZM39.35,73.73c0,.16.12.32.36.32v-.22c-.1,0-.14-.06-.14-.11h-.22ZM46.07,73.3l-.17.13.24.14c.49.31,1.07.47,1.69.47l1.13-.21-.05-.12c-.06-.15-.25-.17-.33-.18-.26-.03-.53-.03-.8-.03-.36,0-.74,0-1.09-.08-.03,0-.08-.03-.15-.05-.17-.06-.29-.1-.37-.1h-.04l-.06.03ZM44.71,73.42l-.02.04.03.11c.05.11.19.23.3.26.06.02.11.03.16.03h.08s.08-.1.08-.1c.03-.2-.11-.27-.19-.3l-.02-.04-.11-.06h-.1s-.07-.01-.07-.01l-.14.07ZM50.88,73.03c-.28,0-.57,0-.85.03h-.08s-.05.2-.05.2l.12.09.14.06c.28.06.55.09.8.09.28,0,.53-.04.73-.11.22-.08.2-.21.18-.26l-.02-.07h-.07c-.3-.02-.6-.03-.89-.03ZM46.74,72.46l-.04.16.13.11c.36.22.75.33,1.19.33.08,0,.15,0,.23,0l.59-.14-.03-.21h-.02c-.26,0-.44-.03-.63-.07l-.26-.04c-.1-.01-.2-.02-.3-.03-.13-.01-.26-.02-.39-.04-.15-.05-.22-.08-.3-.08h-.02l-.15.03ZM47,71.74c.18.23.44.34.77.34.08,0,.16,0,.25-.02l.72-.3-1.91-.22.17.21ZM47.64,70.6c-.18,0-.28.04-.32.13l-.04.09s.21.11.27.15c.19.11.4.23.64.23.06,0,.11,0,.17-.02l.66-.21-.53-.17c-.12-.04-.24-.09-.35-.11-.1-.02-.28-.07-.36-.08-.03,0-.09-.01-.15-.01ZM47.79,69.78l-.23.19.34.2c.25.16.49.31.81.31h0c.06,0,.12,0,.19-.02l.1-.02v-.1c-.03-.23-.22-.24-.3-.24-.12-.02-.61-.21-.73-.26l-.11-.08h-.03l-.04.02ZM49.01,69.84c.31.1.51.16.75.16.06,0,.13,0,.19-.01l.13-.02-.03-.16c-.06-.19-.66-.33-.67-.33-.05,0-.09,0-.13,0-.14,0-.26.04-.41.09l-.15.05.1.18.03.04h.09s.08,0,.08,0h0ZM48.2,66.58c-.18,0-.3.04-.37.11l-.04.04v.11s0,.06,0,.06l.09.04s.05.07.1.12c.05.05.1.11.14.15.06.07.11.17.17.26.07.11.14.23.22.32.44.54.99.8,1.58,1.07.18.08.35.17.53.26.18.09.35.19.52.29.21.12.41.24.62.34.03.04.09.09.19.09l.11-.02.06-.02v-.06c.05-.23.02-.31-.08-.4-.38-.49-.74-.89-1.1-1.29l-.3-.33c-.06-.07-.12-.14-.17-.21-.13-.16-.24-.32-.46-.46-.16-.11-.4-.25-.56-.3-.15-.05-.29-.06-.43-.07l-.18-.02-.13-.02c-.15-.03-.34-.06-.51-.06ZM42.49,68.9l-.23-.24-.16-.13-.12-.05c-.17-.09-.36-.14-.5-.14h-.18s.06.15.06.15c.03.07.32.34.4.35h.12s.24,0,.24,0l.37.05ZM39.38,68.05l-.06.05.18.37c.2.2.41.38.68.38h.1l.05-.1c0-.05,0-.09,0-.13.03,0,.05.01.08.01h.11s.13.07.17.1l.17.05h.16s.27.02.27.02l-.15-.21-.23-.28c-.07-.05-.12-.08-.17-.11-.14-.09-.27-.18-.38-.18h-.05l-.09.07c-.05.06-.06.14-.05.26-.13-.1-.52-.36-.69-.36h-.04l-.06.04ZM42.53,68.12c.18.24.5.51.83.51h0c.14,0,.26-.05.37-.15l.14-.13-.18-.06c-.16-.05-.31-.13-.46-.21l-.11-.06c-.16-.08-.34-.19-.47-.27l-.03-.02-.08-.02h-.09l-.05.09-.04.15.11.05.06.11ZM41.31,68.02l.06.04c.25.19.53.38.9.39h.14s-.03-.13-.03-.13c-.03-.14-.13-.23-.21-.29-.04-.03-.08-.07-.11-.1l-.04-.06h-.07s-.12-.06-.12-.06h-.46s-.05.21-.05.21ZM43.42,67.4c-.13,0-.25.01-.37.04l-.18.04.11.14c.18.21.37.36.59.45l.12.02.03.06h.09s1.37.14,1.37.14v-.33s-.1,0-.1,0c-.13-.01-.21-.07-.28-.12-.09-.06-.17-.12-.24-.15-.4-.18-.8-.28-1.15-.28ZM55.78,67.73l.07-.09c.05-.21-.12-.31-.24-.38-.04-.02-.07-.04-.1-.06-.4-.33-.78-.65-1.17-1l-.29-.27c-.47-.44-.91-.85-1.57-1.07-.14-.05-.32-.08-.49-.12l-.25-.05c-.06-.04-.12-.07-.18-.07h-.04l-.09.05-.06.06.03.07c.27.55.57,1.11,1.01,1.44.19.14.38.23.57.32l.23.11.31.16c.58.29,1.18.59,1.78.83l.18.08h.2s.09,0,.09,0ZM56.35,62.53c-.12,0-.22.05-.29.14-.22.27-.11.5-.01.7.28.57,1.53,1.55,2.06,1.94l.21.15c.1.07.2.14.29.21l.03.02.09.02c.08,0,.16-.05.21-.15-.13-.34-.24-.58-.36-.82-.13-.26-.26-.53-.4-.8-.23-.44-.43-.82-.86-1.05-.17-.09-.58-.29-.77-.34-.08-.02-.13-.03-.19-.03ZM37.29,61.48c-.18.11-.12.38-.05.59.41,1.28,2.28,2.93,3.63,3.21-.03,0,0,.08.11.08l.12-.04.03-.03v-.07c0-.13-.17-.37-1.04-1.17l-.26-.25c-.18-.17-.4-.38-.5-.53-.08-.12-.15-.25-.21-.39-.09-.17-.17-.34-.28-.49-.28-.37-.87-.66-1.4-.89h-.02s-.1-.02-.1-.02h-.03ZM45.11,61.19l-.07.03v.71c0,.55.87,1.28,1.53,1.78.52.4,1,.7,1.56,1.03.16.14.22.19.27.21,0,0,.19.08.32.08h.1l.08-.14c-.02-.18-.13-.28-.22-.36-.03-.03-.06-.05-.09-.08-.2-.22-.4-.44-.61-.65-.47-.49-.91-.96-1.29-1.52,0-.04,0-.08-.02-.13-.29-.41-.96-.76-1.3-.9,0-.01-.05-.08-.17-.08h-.02l-.09.02ZM43.61,43.55c-.07.08-.09.2-.06.39.1.84.95,2.03,1.65,2.8.63.69,1.3,1.36,1.97,2.03.63.63,1.26,1.26,1.87,1.92,1.79,1.94,3.5,4.06,5.55,6.88.49.67.96,1.36,1.43,2.06.59.87,1.2,1.76,1.83,2.61.19.25.39.49.59.74.17.21.35.42.51.63l.03.04.22.02.03-.06c.07-.13.03-.22,0-.28-.11-.62-.22-1.17-.32-1.71-.09-.47-.18-.93-.25-1.39-.1-.57-.2-1.15-.31-1.73-.14-.74-.27-1.48-.39-2.21,0-.06-.02-.11-.04-.17-.02-.1-.05-.19-.04-.29l-.27-.26c.1-.12.07-.37.06-.4-.02-.15-.08-.23-.16-.23h-.04l-.03.02c-.2.15-.14.32-.1.43.02.05.03.09.03.13v.14s.08-.02.08-.02c-.04.14,0,.26.04.35l.08.55c.04.43.08.88.18,1.29.01.04,0,.11,0,.18,0,.07-.01.14,0,.21.08.56.18,1.13.29,1.7.09.52.19,1.04.26,1.54l.15.74-.04-.03c-.1-.19-.29-.45-.48-.71-.35-.47-.75-1-.81-1.45-.14-1.1-.24-2.19-.34-3.28-.13-1.45-.27-2.95-.5-4.44,0-.06-.01-.11-.02-.17,0-.12-.02-.25-.07-.39l-.08-.09.07-.19-.26.05-.08.2c-.02.21-.02.68,0,.88.05.47.1.95.14,1.42l.08.81c.03.29.07.59.1.9.13,1.07.26,2.17.16,3.17-.72-.81-1.17-1.58-1.11-2.61.1-1.51.06-2.85,0-4.32,0-.12,0-.24,0-.35,0-.12,0-.24,0-.36v-.25s-.19.17-.19.17c-.14.13-.12.34-.11.52,0,.08.01.16,0,.22-.08.61-.1,1.23-.11,1.83,0,.32-.02.64-.03.96-.02.29-.05.59-.09.88l-.06.51c0,.08,0,.15,0,.23,0,.05,0,.1,0,.15h-.03c-1.19-1.09-1.13-2.38-.92-3.94v-3.72s-.22-.02-.22-.02l-.14.9c-.03.31-.06.61-.09.91-.04.45-.08.9-.14,1.35-.04.27-.01.63,0,.98.03.38.05.77,0,1.02l-.09.12s-.05.15-.07.17c-.06-.05-.43-.42-.47-.47-.38-.49-.58-1.24-.51-1.9.03-.3.06-.6.09-.91l.06-.66c.06-.6.03-1.25,0-1.89-.02-.58-.05-1.19,0-1.73,0-.17-.07-.32-.21-.38l-.15-.07v.16c-.01.09-.01.18,0,.28,0,.1,0,.19,0,.29-.03.35-.07.72-.11,1.1-.09.78-.18,1.59-.14,2.31,0,.17.03.32.04.47.05.45.09.83-.11,1.34-.02,0-.06.04-.08.1h-.02c-.44-.41-.72-.84-.82-1.31-.05-.93-.02-1.93,0-2.89.03-1.05.07-2.13,0-3.16,0-.09-.03-.18-.05-.27-.03-.11-.05-.21-.04-.32v-.06s-.26-.17-.26-.17v.19c-.01.11-.01.23,0,.35,0,.11,0,.22,0,.33l-.04.9c-.04.78-.08,1.57-.07,2.36v.37c.02.57.03,1.06-.11,1.63-.01.02-.02.03-.03.05l-.06-.06-.13-.06c-.15-.14-.7-.94-.79-1.13-.1-.21-.09-.26-.06-.38.02-.06.03-.13.04-.24.14-1.6.09-3.42-.15-5.57l-.16-.28-.2-.34v5.86l-.46-.39c-.45-.51-.45-.85-.44-1.35,0-.19,0-.39-.01-.63-.02-.27-.07-.56-.11-.85l-.07-.47s0-.1,0-.15c0-.21-.01-.56-.35-.58h-.16s.05.14.05.14c.11.36.14.83.11,1.44,0,.04-.02.07-.03.12-.02.05-.04.11-.04.17,0,.06,0,.13,0,.2,0,.16,0,.37-.07.45-.02.02-.04.04-.11.04-.47-.05-1.05-.78-1.3-1.27-.23-.45-.22-.78-.2-1.19,0-.19.01-.4,0-.64-.05-.69-.21-1.41-.37-2.1l-.13-.59-.02-.11c-.02-.17-.05-.39-.22-.5l-.03-.02-.1-.02h-.05l-.07.05s-.04.07-.03.14l.42,3.84c-.12-.02-.25-.08-.36-.14-.16-.08-.31-.16-.44-.16h-.05l-.13.08ZM50.16,58.55v.24c-.03.45-.05.97.25,1.38.47.64,2.03,1.86,2.73,2.13l.11.03s.1.02.13.04l.15-.15-.16-.28c-.66-.7-1.15-1.49-1.63-2.25l-.12-.2c-.28-.44-.55-.83-1.11-1.03l-.14-.02h-.11l-.11.11ZM39.06,56.84l-.03.05.04.11v.55c0,.09.26.74.31.81.36.57,2.11,2.08,2.72,2.54.11.08.22.15.33.23.17.11.34.22.49.36l.38.07.04-.05c.17-.23.02-.38-.06-.46-.29-.36-.54-.64-.8-.93-.39-.43-.78-.87-1.09-1.38-.67-1.1-.9-1.31-2.06-1.9l-.02-.08h-.14s-.1.07-.1.07ZM31.38,55.14c-.15.11-.09.28-.06.36.12.92.33,1.5.75,2.1l2.39,2.37.36.04h.08s.03-.08.03-.08c.05-.16-.04-.23-.07-.26-.09-.17-.22-.31-.35-.45-.07-.08-.14-.16-.2-.24-.68-.9-1.13-1.61-1.43-2.59-.11-.36-.55-.78-.82-.95-.09-.06-.2-.11-.3-.17-.09-.04-.17-.09-.25-.14l-.06-.04-.06.04ZM44.86,55.26c-.07.17-.02.27.02.34.2,1.09.47,1.36,1.12,2.01l.08.08c.54.55,1.16,1.15,1.61,1.51.14.11.3.2.46.29l.29.16v-.19c0-.24-.12-.42-.24-.58l-.23-.3c-.4-.51-.8-1.04-1.11-1.58-.09-.15-.15-.29-.22-.41-.23-.45-.39-.77-.98-1.08-.16-.09-.56-.29-.7-.29h-.05l-.06.04ZM48.44,53.96c-.07,0-.24.03-.29.29-.02.12.02.58.04.69,0,.04.07.32.08.34.17.5,1.88,1.6,1.9,1.61.18.11.35.2.56.31.18.13.25.18.33.18h.05l.06-.05.03-.04v-.13c-.34-.44-.63-.82-.93-1.23-.07-.1-.16-.23-.27-.38-.35-.5-.83-1.19-1.15-1.41-.12-.08-.27-.18-.42-.18ZM35.03,51.91l-.03.1s0,.1,0,.15c0,.05,0,.1,0,.15,0,.04-.03.13-.05.22-.08.37-.11.54-.09.62v.06s.11.04.11.04c.03.23.06.28.2.44l.11.13c.43.52.98,1.06,1.63,1.61l.87.55-.96-1.78c-.36-.68-.73-1.38-1.28-1.98-.15-.22-.19-.28-.25-.3h-.02s-.1-.02-.1-.02h-.14ZM40.89,51.62c-.13.54-.15.98-.06,1.37.09.37.33.64.56.91.07.08.15.17.22.25l.24.31c.28.36.58.74.9,1.07.2.21.37.4.6.4h.08s.09-.1.09-.1c.02-.17-.03-.33-.09-.46-.04-.11-.13-.22-.21-.33-.05-.07-.11-.14-.14-.2-.35-.61-.74-1.31-.91-1.96-.1-.36-.4-.81-.75-1.08-.05-.04-.11-.08-.17-.11-.06-.04-.13-.08-.18-.12l-.13-.11-.04.17ZM29.27,50.64s-.22.26-.23.27c-.08.13-.23.5-.25.67-.04.37.04.53.13.73.03.06.06.13.09.21l.16.43c.22.58.45,1.19.77,1.73.1.17.23.25.39.25l.11-.02.06-.11s0-.1,0-.15c0-.08.01-.16,0-.23,0-.02-.01-.03-.09-.17l-.06-.12c-.05-.21-.18-.73-.21-.99-.02-.22-.02-.44,0-.66.01-.36.02-.73-.09-1.1-.07-.22-.21-.37-.34-.52-.07-.08-.14-.15-.2-.24l-.03-.05h-.14s-.06.05-.06.05ZM26.36,49.52c-.13,0-.18.15-.2.23-.4,1.2.06,2.77,1.05,3.57l.34.19.06-.07c.05-.07,0-.28-.06-.44-.11-.35-.2-.74-.28-1.13-.15-.69-.3-1.41-.63-1.98-.05-.09-.1-.19-.15-.29l-.03-.07h-.1ZM44.13,49.77v1.05c0,.23,1.02,1.24,1.03,1.25.24.23.53.48.79.68.51.4.67.53.73.55l.12.03h.06s.07-.07.07-.07c.07-.18-.02-.28-.06-.32-.15-.37-.39-.69-.63-1-.16-.2-.31-.4-.44-.61-.08-.14-.15-.29-.21-.45-.09-.21-.18-.41-.29-.59-.16-.25-.69-.53-.96-.59h-.04s-.17.08-.17.08ZM37.68,49.07c-.2,0-.26.16-.31.3-.07.19-.13.33-.14.43-.08.63.25.98.6,1.34.09.09.17.18.26.28.1.12.2.24.3.37.14.17.27.35.42.51.19.21.8.89.91.94.05.02.34.1.42.1l.12-.08v-.04s0-.1,0-.1l-.02-.04-.08-.03c-.02-.12-.14-.3-.25-.47l-.14-.22c-.32-.55-.69-1.18-.9-1.72-.05-.13-.08-.26-.12-.38-.08-.31-.17-.64-.48-.9-.06-.05-.34-.22-.39-.24-.08-.03-.14-.04-.2-.04ZM31.98,47.09c-.11.17-.16.26-.2.35-.09.18-.18.36-.21.59-.07.72.15,1.09.44,1.56l.12.2.21.37c.14.25.28.49.43.72.06.1.47.63.6.71l.03.02.1.03.11-.04c.06-.06.06-.13-.1-.67l-.04-.15c-.05-.21-.09-.43-.14-.64-.05-.27-.11-.54-.17-.81l-.05-.23c-.15-.63-.36-1.59-.76-1.89-.1-.09-.18-.15-.29-.15h-.08ZM56.52,49.06l-.03.03v.14c-.09.34-.13.53,0,.85l.03.06h.07c-.01.07.03.15.12.15.26-.18.21-.77.21-.78-.01-.09-.05-.17-.09-.24-.03-.06-.06-.11-.06-.16v-.09s-.08-.02-.08-.02h-.1s-.07.04-.07.04ZM28.4,45.37c-.12,0-.18.11-.22.19l-.15.18c-.13.14-.29.29-.33.47-.05.2-.04,1.08-.01,1.31.08.78.41,1.48.69,2.1,0,.19.1.21.15.21.12-.02.14-.03.22-.52.02-.16.04-.33.05-.5,0-.13.02-.25.03-.37l.04-.33c.09-.68.22-1.61,0-2.19-.04-.1-.23-.4-.31-.47l-.03-.03-.13-.04ZM34.96,45.11c-.25,0-.25.23-.24.31-.03.13-.06.21-.08.28-.01.05-.06.15-.09.23-.02.06-.04.1-.05.12-.06.26.02.63.09.81.2.57.5,1.09.79,1.59l.12.21.68.92.23.08c.2-.13.16-.37-.11-1.25-.04-.13-.07-.24-.08-.29-.05-.22-.08-.46-.12-.7-.06-.48-.13-.97-.34-1.39-.06-.12-.19-.29-.28-.4-.05-.06-.11-.13-.18-.19-.09-.09-.18-.18-.24-.28l-.03-.06h-.06ZM38.11,45.19c-.07.1-.07,1.07-.07,1.08.04.45.42.96.68,1.3.43.56.9,1.04,1.39,1.53l.53.41v-.23c-.01-.21-.1-.39-.17-.55-.13-.3-.24-.51-.35-.72-.23-.45-.43-.84-.54-1.37-.01-.07-.03-.13-.04-.2-.02-.16-.05-.32-.14-.49-.09-.16-.31-.38-.44-.47-.08-.06-.47-.32-.6-.35h-.09s-.06-.01-.06-.01l-.11.08ZM25.29,45.17c-.02.18-.1.37-.19.56-.04.1-.09.19-.12.29-.07.18-.1.33-.14.51l-.02.11c-.11.23-.11.93-.07,1.11v.06s.1.04.1.04c.08.39.16.6.38.98.11.13.14.17.13.21l-.03.24.2-.13c.2-.13.19-.33.19-.49,0-.05,0-.1,0-.15.16-1.15.14-2.03-.07-2.97-.02-.2-.04-.36-.2-.45l-.15-.08-.02.16ZM55.38,48.12c-.13.18-.16.43-.08.63.06.16.18.26.35.3l.13.03v-.13c0-.31.02-.55-.15-.75l-.09-.11-.15.02ZM40.97,45.2v.07c-.12.54-.18,1.16.14,1.64.17.25,1.46,1.51,1.73,1.74.13.11.32.27.5.27h.03l.13-.05c.08-.05.09-.11.09-.15,0-.09-.08-.15-.13-.19-.31-.43-.56-.85-.81-1.27-.2-.33-.39-.66-.6-.98-.1-.15-.6-.9-.8-1.03-.05-.04-.1-.07-.17-.07h-.01l-.1.02ZM54.29,46.78c-.07,0-.23.03-.27.32-.02.17,0,.61.18.67l.12.02c.09,0,.17-.04.22-.11.16-.25-.09-.81-.09-.82l-.03-.06h-.13ZM33.07,42.75c-.15.12-.58.59-.68.75l-.04.11-.04.03-.05.13c0,.37,0,.78.1,1.22.09.39.26.8.48,1.17.05.07.11.19.12.24v.08s.09.02.09.02h.04l.14-.06c.1-.09.11-.29.09-.74,0-.1,0-.18,0-.23.03-.48.09-1.04.15-1.52.01-.09.03-.17.05-.24.05-.23.1-.47-.05-.75v-.02s-.1-.08-.1-.08v-.07s-.12-.07-.12-.07h-.07s-.05-.01-.05-.01l-.06.05ZM25.31,42.42c-.17.06-.34.16-.49.29-.12.1-.37.38-.43.53-.18.48-.38,1.57-.41,2.03,0,.13,0,.26,0,.39,0,.24.02.46-.06.66l-.04.1.1.04c.07.03.13.04.19.04.28,0,.3-.3.31-.5,0-.07,0-.14.02-.2.18-.8.51-1.44.81-1.97.07-.12.13-.23.19-.35.11-.18.11-.78-.01-.97l-.03-.04-.1-.05h-.03s-.02,0-.02,0ZM52.82,44.96c-.22,0-.24.25-.25.36-.04.36,0,.62.13.8l.04.06.14-.04.09-.08c.05-.25.11-.53.08-.81v-.04s-.07-.08-.07-.08l.05-.12-.13-.05h-.06ZM31.09,41.93c-.15,0-.72.49-.72.5-.07.07-.28.4-.29.49-.06.45.15,1.39.23,1.69.07.26.16.51.26.76.08.2.15.41.22.62l.04.14.12-.08c.11-.07.18-.25.2-.35.05-.35.02-.75,0-1.14-.02-.23-.03-.46-.03-.67,0-.22.05-.42.09-.64.06-.28.13-.57.09-.91,0-.06-.03-.11-.05-.16-.02-.05-.03-.09-.03-.13l.02-.12h-.13ZM54.17,45.01c-.1.12-.06.56-.06.57,0,0,.11.52.31.52l.12-.07c.14-.36.12-.67-.08-.89-.05-.07-.08-.11-.12-.15l-.03-.02h-.09l-.05.05ZM29.21,41.15c-.25,0-.89.37-1.01.53-.22.28-.35.72-.42,1.03-.09.4-.14,1.24-.09,1.68,0,.06.03.12.06.19.03.08.06.15.06.21v.09s.09.02.09.02h.09l.09-.15c.15-.42.32-.8.49-1.18.3-.66.61-1.34.74-2.09.04-.06.08-.13.07-.21l-.02-.09-.15-.02ZM40.35,43.87l-.02.18c0,.21-.02.52.26.61l.15.05-.06-1.4-.33.55ZM37.57,43.33c-.07.07-.06.18-.05.29,0,.13-.03.19-.05.25-.09.25-.14.4-.06.49l.32.14.05-.07c.17-.26.12-.53.08-.77-.02-.09-.04-.19-.04-.28v-.09s-.13-.02-.13-.02h-.05l-.07.05ZM52.76,43.3c-.2.47.01.76.18.94l.05.06.07-.03c.07-.03.11-.11.13-.26.02-.17.01-.57-.14-.68-.05-.04-.12-.05-.17-.05h-.02s-.11.03-.11.03ZM51.11,43.35c-.09.18-.14.38-.05.52.03.05.1.11.24.11h.12l.02-.12s0-.07.01-.11c.02-.11.04-.24-.04-.34-.04-.05-.15-.09-.21-.09h-.04l-.04.03ZM46.97,41.93c-.12,0-.17.16-.17.19-.03.24-.02.59-.01.9,0,.14,0,.51,0,.51l.18.05h.1v-.1c.05-.31.04-.62.03-.92,0-.17-.01-.34-.01-.51v-.08s-.07-.03-.07-.03h-.04ZM31.95,42.34c-.05.09-.29.93-.17,1.08l.04.06.07-.02c.2-.05.25-.13.29-.26,0,0,.06-.03.08-.11.04-.17.03-.34.01-.51,0-.1-.02-.2-.01-.29v-.27s-.32.31-.32.31ZM53.59,42.38c-.07.27-.1.45,0,.75l.03.08h.22c.23-.29.17-.59-.06-.87l-.14-.17-.05.21ZM54.33,42.01v.11c-.02.23-.02.36.03.49.02.05.31.54.52.54h.05l.06-.04c0-.19,0-.27-.02-.34-.03-.16-.06-.33-.17-.51,0,0-.16-.2-.21-.22h-.02s-.09-.02-.09-.02h-.13ZM25.09,30.71c-.07,0-.43,0-.58.14-.18.16-.24.75-.29,1.45-.01.15-.02.27-.03.35-.09.72-.2,1.38-.31,2.05l-.12.73c-.32,1.95-.56,4-.77,5.78-.03.26-.02.55,0,.85.01.26.02.51,0,.75v.12s.33,0,.33,0l.79-2.43v-.24s.22.1.22.1l-.07-.23c1.19-2.03,2.41-3.34,3.77-4.09l.61-.53h0s.07-.06.07-.06c.03-.03.08-.04.13-.06l.11-.03c.89-.35,1.64-.59,2.31-.74.35-.08,1.26-.26,2.16-.26.39,0,.71.03.97.1.59.15,1.1.56,1.58.95.21.17.42.34.63.49.2.14.21.14.23.15.08.03.16.04.24.04.19,0,.4-.08.57-.21.26-.2.42-.47.57-.73.17-.29.33-.57.62-.74.29-.18.86-.38,1.21-.46.25-.05.52-.08.8-.08.83,0,1.65.23,2.35.45.56.18,1.32.43,1.81.76.17.12.35.28.54.45.28.26.58.53.88.66.17.08.28.08.42.09h.11c.09.03.12.04.16.04h.09s.02-.08.02-.08c.05-.2-.1-.25-.17-.27-.47-.31-.83-.67-1.19-1.02l-.27-.27s-.07-.06-.11-.08c0,0-.01,0-.02-.01.03.01.06.02.09.03.18.06.34.13.49.19.32.13.66.26.99.34.24.06.78.12,1.22.12.2,0,.35-.01.46-.04h.06s.04-.11.04-.11c.31-.05.46-.1.83-.27.12-.09.15-.12.18-.12.06-.01.11-.02.15-.02.14,0,.17.06.25.25.02.06.05.12.08.18.31.62.57,1.21.77,1.71l.04.08s-.06.02-.08.03c-.09.03-.12.03-.16.03-.24,0-.59-.08-.88-.15-.12-.03-.24-.06-.33-.07h-.28s-.02-.06-.02-.06h-.06s-.09-.02-.15-.02c-.19,0-.31.05-.35.15l-.06.16h.23s.03,0,.03,0c.62.28,1.37.48,2.36.62h.24s.12,0,.12,0h.05s.1-.03.1-.03c.06-.06.07-.13-.14-.66-.17-.44-.31-.83-.46-1.28l-.2-.57c-.24-.68-.49-1.39-.62-2.02-.03-.15-.04-.3-.05-.45,0-.1-.01-.21-.03-.31l-.04-.13s-.04-.08-.03-.11l.03-.13h-.07s.02-.02.02-.03c-.12-.55-.3-1.16-.38-1.76-.2-1.56-.3-4.07-.08-5.66,0-.04.02-.08.03-.12.04-.11.08-.24.03-.39l-.05-.16-.13.11c-.08.07-.13.12-.16.16-.24.35-.68,1.51-.71,1.91-.04.4.05.61.36.82-.03.01-.07.03-.1.04-.12.06-.27.12-.37.12-.1-.05-.23-.36-.26-.47-.01-.04-.02-.08-.02-.13-.02-.16-.05-.42-.33-.42l-.15.03c-.12.1-.25.18-.39.26-.09.05-.17.1-.25.16-.03.02-.14.11-.14.2v.06l.09.07h.09s.07.07.13.07h.12s.18,0,.18,0c.11,0,.18.01.23.05l-.73.41s-.01,0-.02,0c-.03,0-.09.02-.15.04-.05.02-.12.04-.15.04-.01-.02-.01-.16-.01-.24,0-.08,0-.15-.01-.2-.06-.26-.29-.54-.5-.79-.11-.13-.21-.25-.27-.35-.02-.03-.03-.06-.04-.1-.02-.05-.04-.12-.08-.17,0-.02.01-.04.02-.06.05-.08.14-.12.22-.15.04-.02.08-.04.12-.05.32-.17.63-.28.96-.39.24-.08.49-.16.74-.28.06-.03.13-.06.19-.1.1-.06.2-.11.31-.14l.13-.03-.06-.12c-.05-.09-.12-.13-.21-.13-.07,0-.13.03-.19.05-1.4.19-2.78.48-3.8.81-.59.19-.61.23-.63.26l-.03.04v.12c.03.09.12.12.19.14.55.38,1.2.98,1.43,1.51.3.71.28,1.5-.06,2.17-.34.66-.94,1.13-1.67,1.3-.21.05-.42.07-.63.07-1.31,0-2.47-.87-2.77-2.08-.16-.62-.07-1.27.23-1.84.02-.03.08-.11.14-.19.28-.38.32-.46.3-.54-.02-.07-.09-.14-.43-.14-.04,0-.14,0-.19.01h-.06s-.04.11-.04.11c-.38.13-.47.36-.61.73-.02.02-.07.04-.09.11-.16.72-.06,1.53.06,2.31-.36-.43-.54-.93-.71-1.43-.07-.2-.14-.4-.23-.6-.04-.1-.09-.2-.15-.3l-.09-.17h-.09c-.14,0-.21.17-.28.35-.02.04-.04.1-.05.12-.04-.02-.1-.07-.15-.1l-.11-.07c-.18-.07-.56-.16-.8-.16-.16.01-.2.06-.23.13l-.15-.03c-.07.02-.2.09-.32.16-.08.05-.2.11-.23.12v-.18s-.01-.06-.01-.06l-.08-.04c.01-.14-.09-.18-.16-.18-.04,0-.08,0-.14.02-.13.04-.39.75-.39.75-.07.23-.12.46-.17.69-.08.39-.15.75-.36,1.08l-.03.03v-1.81c0-.07-.18-.49-.2-.52-.03-.05-.23-.23-.36-.23h-.05l-.06.04c-.02.29.01.49.05.69.05.32.11.64.07.96-.16,1.42-1.89,2.48-3.32,2.48-.17,0-.34-.02-.5-.05-1.03-.21-1.78-.93-2.02-1.94-.25-1.03.12-2.08.96-2.74.03-.03.07-.05.1-.07.13-.07.33-.18.2-.51l-5.52-2.12.16.52c.1.3.2.61.23.92.31,1.29.25,2.71.14,4.04,0,.09,0,.17,0,.26,0,.07,0,.13,0,.2v.09s.09.02.09.02h.08l.13-.1c.05-.08.09-.18.14-.28.1-.21.22-.48.37-.48.1.04.18.23.19.28.01.09.02.17.02.24.01.16.02.3.13.53,0,.06,0,.18.18.23h.02c.21,0,.53-.11.6-.13h.04s.05-.08.05-.08c.17-.06.3-.11.41-.11.06,0,.11.02.15.05,0,0,.07.11.09.14.01.16-.09.21-.35.3l-.22.08c-.15.05-.2.07-.24.08-.12.03-.24.06-.3.17-.04.08-.04.18,0,.32.07.19.22.31.4.31.19-.02.34-.12.51-.23.19-.13.41-.27.57-.27.05,0,.08.01.12.04.05.2-.26.42-.45.55-.13.09-.24.16-.29.23l-.21.35.11.05c.07.04.15.1.22.16.14.12.3.25.5.25.17-.03.23-.12.46-.52.08-.15.21-.37.25-.4h.03c.13,0,.18.02.21.05.02.17-.05.32-.12.46-.12.25-.23.48-.12.65.06.1.18.14.35.14.09,0,.2-.01.34-.04h.08s.12-.96.12-.96c0,0,0,0,0,0,.02,0,.06-.02.14-.02.08,0,.14.02.15.04,0,.05,0,.34,0,.42,0,0,0,0,0,0-.02,0-.06.04-.07.11,0,0-.04.47.09.56.14.04.26.05.37.05.1,0,.19-.01.26-.03.2-.06.19-.33.18-.59,0-.14-.01-.35.03-.39.1.04.14.06.19.07h.11c.22.01.41-.1.6-.2.14-.07.26-.14.38-.16h.03c.36,0,.64.14.79.35.15.2.23.37.24.55,0,0-.01,0-.02,0-.03,0-.04.06-.05.09-.05.08-.2.16-.25.17-.05,0-.13-.11-.17-.17-.05-.07-.09-.12-.14-.14l-.11-.02c-.1,0-.2.05-.29.14-.16.18-.26.5-.24.69.01.14.03.39.27.39.05,0,.12-.01.2-.04.84-.31,1.99-1.23,2.5-1.87.74-.92.94-1.69,1.19-2.84.17-.78.75-1.26,1.51-1.26.19,0,.39.03.58.09.24.08.45.25.56.49.18.37.26.84.34,1.29.04.22.08.43.12.63.45,1.9,2.68,3.33,4.49,3.58.31.04.65.07,1.01.07.77,0,3.33-.14,4.24-1.92.06-.07.11-.14.09-.25h.06l.1-.09c.07-.09.21-.32.25-.42.05-.11.09-.23.12-.35l.06-.19s.02.02.04.03c.1.1.14.46.17.68.01.1.02.19.03.25.02.09.12.37.17.44.06.1.28.29.47.32-.01.01-.02.02-.03.03l-.13.05c-.09,0-.17-.04-.26-.09l-.11-.06c-.08-.07-.12-.08-.17-.09-.05-.01-.09-.02-.12-.04l-.07-.05-.06.06c-.12.11-.18.31-.17.62,0,.16.05.32.13.51l.18.27c-.12-.03-.29-.1-.5-.21,0-.03-.05-.09-.14-.12-.05-.02-.11-.03-.16-.03-.1,0-.2.04-.26.1-.04.04-.09.12-.09.24,0,.1.08.27.16.47l.06.09s-.06-.03-.09-.05c-.1-.05-.2-.1-.34-.1h-.12c-.07.03-.29.27-.31.3v.03s-.02.05-.02.05c-.04,0-.07-.02-.1-.03l-.12-.04c-.06-.02-.14-.03-.21-.04-.07-.01-.13-.02-.19-.04-.04,0-.08-.02-.12-.04-.08-.03-.18-.06-.28-.07l-.19-.02.21.46c.08.07.08.07.08.16l-.04.05-1.34-.47c-.58-.03-1.2-.13-1.85-.24-.83-.14-1.7-.28-2.52-.28-1.37,0-2.32.4-2.98,1.27-.12.16-.21.34-.3.52-.07.13-.13.27-.21.39-.04.03-.1.05-.17.05-.1,0-.21-.05-.35-.14-.24-.17-.46-.36-.68-.55-.44-.39-.9-.78-1.49-.95-.43-.12-.88-.18-1.37-.18-.82,0-1.63.17-2.42.33-.24.05-.49.1-.73.15-.2.04-.41.07-.63.1-.43.06-.88.13-1.24.25-.1.03-.43.18-.52.23-.03.02-.36.35-.38.39-.04.06-.06.11-.04.19l.02.08s.09,0,.1,0c.15,0,.26-.02.36-.04.05-.01.13-.06.26-.14.09-.05.24-.14.28-.15h.3c-.06.04-.11.11-.1.19h-.07c-.06,0-.13,0-.16.01-.53.12-2.21,1.26-2.68,1.66-.06.05-.12.12-.18.19-.06.07-.13.15-.18.19,0,0-.01,0-.02,0-.04,0-.11.01-.15.07-.11.01-.22.01-.32.01-.17,0-.35-.01-.52-.02l-.3-.02h0s.12-.1.12-.1c.13-.6.21-1.15.3-1.76.03-.18.05-.23.06-.24.15.05.38.11.61.17.42.1.86.21,1.3.21.1,0,.2,0,.3-.02.07,0,.14-.03.22-.06.08-.03.16-.05.23-.05h.16s-.06-.15-.06-.15c-.01-.03-.02-.07-.03-.12-.04-.18-.08-.36-.22-.39-.04,0-.14-.01-.23-.01-.1,0-.17,0-.2.01-.03,0-.04.02-.14.09l-.11.06h-.13s.03-.12.03-.18c-.01-.09-.02-.14-.03-.17-.04-.12-.13-.18-.26-.18-.16,0-.36.11-.52.2-.07.04-.15.08-.18.09h-.19c0-.05.04-.1.1-.16.05-.05.09-.1.11-.16.04-.14.06-.22.01-.28l-.03-.04-.11-.02c-.07-.02-.3-.14-.33-.15-.03-.04-.07-.07-.1-.1l.1-.13c.09-.2.14-.52.17-.79l.02-.13s0-.11,0-.18c0,0,0,0,0-.01.48.72.97,1.08,1.66,1.26.09.02.16.03.23.04.05,0,.09.01.14.02l.02.06h.06c.21.04.43.05.66.05.96,0,1.98-.23,2.88-.43.11-.03.2-.03.28-.04.13-.01.25-.03.35-.06h.04s.1-.12.1-.12l.18.02-.08-.18c-.12-.3-.22-.53-.54-.53-.07,0-.14.01-.23.03-.26.07-.35.26-.42.4-.05.1-.07.14-.11.14-.06-.01-.14-.09-.22-.17-.1-.1-.22-.21-.38-.23l-.02-.05s-.03,0-.05,0c-.2,0-.38.13-.6.36-.02.02-.07.09-.12.15-.04.06-.09.12-.11.14,0-.02-.01-.31-.02-.41,0-.1,0-.19-.03-.25-.05-.16-.34-.19-.4-.19-.27,0-.42.26-.54.49-.09.16-.19.32-.28.32-.08-.12-.03-.29.02-.48.05-.19.11-.41,0-.64l-.03-.06h-.11c-.23,0-.44.19-.65.38-.17.15-.34.31-.47.31,0,0-.11-.12-.13-.15.02-.06.09-.17.16-.28.1-.15.21-.31.17-.52-.04-.23-.24-.37-.53-.37-.09,0-.18.01-.26.04-.09.04-.14.05-.22.07-.12.04-.17.06-.2.06-.02-.11.15-.22.26-.28.11-.06.19-.11.24-.17.08-.11.1-.24.07-.37-.03-.12-.12-.23-.23-.28-.11-.05-.27-.06-.36-.06ZM25.78,39.33c-.12,0-.23.05-.32.14-.46.49-.82,1.13-1.02,1.82-.11.38-.24.85-.25,1.21,0,.07,0,.18.1.25l.1.07.26-.48.23-.4c.26-.44.52-.9.81-1.33.02-.03.05-.07.1-.12.12-.15.18-.23.2-.28.07-.21.03-.4-.01-.59-.01-.06-.05-.27-.05-.27h-.15ZM41.76,39.01s-.06.1.05.37c.11.26.27.52.44.79.13.21.26.41.36.62.12.24.19.5.27.76.08.27.16.56.29.8.03.05.12.16.16.2l.2.2-.02-.28c0-.05,0-.1,0-.16,0-.08,0-.16,0-.23-.03-.25-.12-.55-.21-.82l-.09-.3c-.14-.53-.4-1.29-.98-1.75-.04-.03-.08-.05-.12-.07-.08-.04-.1-.05-.1-.08l-.02-.09-.13-.02h-.06l-.05.06ZM37.38,41.97v.66h.22l.07-.11v-.66h-.22l-.07.11ZM51.07,41.18v.09c0,.06-.02.11-.04.17-.03.09-.06.18-.04.31v.06s.11.08.11.08c-.04.01-.04.06-.02.11.03.07.31.28.34.29l.26.12-.12-.26.03-.02.05-.08c.05-.2,0-.4-.14-.63-.07-.14-.13-.26-.3-.26h-.14ZM40.24,41.45c-.07,0-.14.03-.2.1l-.08.09.72.57c.08.1.14.18.26.18l.08-.02.09-.1v-.79l-.04-.11.02-.1h-.02c.04-.12.05-.22.04-.34-.01-.22-.11-.27-.18-.27h-.1l-.03.24c-.02.1-.03.21-.02.33h-.06s.02.14.02.14c.02.11,0,.21-.03.26h-.12s-.06-.03-.09-.05c-.07-.05-.15-.12-.26-.12ZM49.61,41.1c-.1,0-.28.08-.33.15-.06.08-.05.34-.03.39v.06s.11.04.11.04c-.02.1,0,.22.1.31.06.05.14.08.21.1l.09.04.13-.06c.08-.16.05-.58-.04-.8-.04-.12-.1-.19-.17-.21h-.07ZM30.23,41.02l-.05.06c-.01.15-.04.19-.08.27-.04.06-.08.13-.09.22-.01.07,0,.14,0,.21,0,.05,0,.09,0,.14v.16s.14-.05.14-.05c.37-.12.5-.33.44-.72v-.04s-.07-.08-.07-.08l.03-.09-.1-.07-.08-.04-.14.02ZM33.94,41.56c0,.15.02.32.17.34l.12.02v-.64l-.21-.03-.08.31ZM52.06,40.85c-.08.34.1.66.43.79l.17.06-.02-.18s0-.1,0-.16c0-.08.01-.16,0-.23-.08-.11-.15-.17-.16-.19l-.27-.17-.12-.05-.03.12ZM36.61,39.23v.09c0,.07,0,.11,0,.14-.08.31-.2.9-.22,1.2,0,.1.02.19.05.27.03.09.05.16.03.24l-.03.13h.39s0-.12,0-.12c0-.14.21-.32.38-.35.02,0,.03,0,.05,0,.1,0,.17.02.23.03.09.02.18.04.28.04h.11s.09-.03.09-.03v-.1c-.01-.1-.09-.16-.14-.2-.09-.13-.18-.33-.26-.49l-.07-.14-.67-.78-.22.05ZM38.17,39.3l-.03.18c0,.06,0,.12,0,.18v.06s.11.04.11.04c-.02.03,0,.14.01.25.04.26.08.56.19.75l.11.13.1.4.11-.39c.05-.17.16-.25.36-.25.13,0,.28.03.43.06.08.02.16.03.24.04l.25.03-.15-.21c-.11-.15-.26-.32-.4-.44-.28-.25-.72-.58-1-.77,0,0-.18-.11-.26-.11h-.05l-.04.04ZM53.17,40.43c-.05.05-.1.14-.03.31.06.16.25.44.42.44h.05l.06-.05c.04-.21.03-.42-.08-.54-.02-.02-.26-.19-.34-.19h-.04s-.03.03-.03.03ZM28.65,40.14c-.05,0-.16.06-.19.09-.05.06-.21.56-.21.62v.03s.05.1.05.1l-.02.1.13.07h.08l.12-.09c.18-.22.32-.4.22-.69v-.04s-.1-.08-.1-.08v-.12s-.08,0-.08,0ZM34.79,40.44c.13,0,.25.05.32.1.01,0,.05.05.08.08.1.12.22.25.35.25l.12-.04c.11-.11.11-.24.1-.35,0-.04,0-.08,0-.11.03-.15.06-.3.09-.46.05-.22.09-.43.12-.64,0-.07,0-.14,0-.21,0-.05,0-.09,0-.14v-.21s-.38.24-.38.24c-.4.31-.88.72-1.12,1.3-.11.05-.09.17-.06.24l.03.07h.2s.06-.12.06-.12c0,.02.01.02.04.02.01,0,.03,0,.05,0ZM31.7,40.07c-.08.1-.01.27.03.36l.03.06.1.05h.69v-.22l-.11-.07h-.51l-.05-.17-.08-.12-.09.12ZM47.2,39.38v.08c-.02.35.21.58.42.76l.23-.02.14-.04-.08-.12c-.03-.05-.04-.11-.06-.18-.02-.11-.04-.24-.17-.35-.06-.05-.12-.07-.17-.08v-.14s-.31.09-.31.09ZM33.96,38.81c-.09.08-.17.13-.24.18-.19.13-.45.3-.36.56,0,0,.27.56.33.61.03,0,.05,0,.08,0,.11,0,.16-.06.21-.11.02-.02.85-1.16.62-1.37l-.05-.04-.6.17ZM26.91,39.01l-.09.16c-.12.21-.26.44-.25.66,0,.08,0,.18.11.25,0,0,.01,0,.02,0,.21,0,.47-.3.5-.41.02-.09.01-.21,0-.32,0-.09-.01-.18,0-.24v-.08s-.16-.08-.16-.08l-.12.06ZM50.22,38.99v.11s.02.09.01.14c0,.07-.01.15,0,.22.01.06.23.39.24.4.07.09.16.15.28.18l.21.05-.08-.2c-.03-.08-.04-.19-.04-.29,0-.08-.01-.16-.02-.22v-.06s-.11-.04-.11-.04c.02-.07,0-.12-.09-.19-.07-.06-.14-.11-.24-.11h0l-.14.02ZM49.12,39.05c-.15.13-.01.47.03.57.11.26.24.39.38.39l.06-.02.1-.08c.04-.31-.06-.59-.28-.74-.08-.06-.14-.11-.24-.11h-.05ZM30.49,39.11c-.1,0-.16.06-.21.1l-.05.05v.1s.11.35.11.35l.3-.02v-.55s-.08-.02-.08-.02h-.08ZM30.84,39.45v.25h.19l.06-.08.07-.28h-.25l-.07.11ZM31.97,38.89c.23,0,.27.13.32.46.01.09.03.18.05.27l.02.06.06.02h.08l.12-.1.22-.25c.32-.36.71-.8.84-1.09.03-.06.06-.11.04-.2l-.02-.08s-.08,0-.09,0c-.75,0-1.32.31-1.8.61l-.05.03-.02.29.23-.02ZM51.94,38.8c-.08,0-.15.04-.19.1l-.04.06.04.06c.17.24.36.47.7.47h.1s.1-.11.1-.11c0-.14-.11-.22-.19-.27v-.02s-.15-.14-.15-.14c-.02-.01-.2-.15-.36-.15ZM45.14,38.26l-.03.04.02.1c.02.08.15.37.19.45.03.06.18.28.23.34.08.1.15.15.21.15l.02-.03.1-.07c0-.06.02-.11.03-.17.03-.14.06-.28.04-.43v-.06s-.1-.08-.1-.08c0-.06-.01-.13-.11-.19-.11-.08-.24-.11-.38-.11h-.18s-.06.06-.06.06ZM27.84,38.89c-.11,0-.22.11-.25.14l-.03.04-.04.12c0,.09.11.16.2.16l.05-.03.08-.09s.15-.04.17-.14v-.06s-.06-.09-.06-.09l-.03-.03h-.08ZM41.01,38.24l-.13.07.09.1c.45.51.61.61.71.61l.06-.05.07-.11c-.11-.29-.22-.48-.35-.55-.1-.06-.2-.11-.31-.11h-.03l-.12.03ZM46.39,37.55l-.03.04v.1c.06.12.1.2.13.28.05.13.1.26.2.39.11.14.35.31.37.33l.15.1.02-.18c.04-.33.09-.66-.08-.84-.1-.11-.49-.26-.63-.27h-.09s-.06.04-.06.04ZM32.56,37.42c-.1,0-.18.03-.25.06l-.16.04c-.48.09-.98.19-1.44.37-.02,0-.21.08-.26.18l-.09.14.16.02c.06.01.13.06.18.09.08.06.12.12.16.16.05.07.11.15.25.15h0c.08,0,.18-.02.35-.08.03,0,.18-.07.22-.09.44-.2.82-.51,1.07-.86l.09-.12-.16-.05-.12-.02ZM47.74,37.48l-.03.04v.1c.03.1.39.75.43.8l.24.2.17-.13s0-.06.03-.11l.02-.02.03-.08c.01-.1.03-.63-.22-.74-.11-.05-.33-.1-.47-.1h-.14s-.05.05-.05.05ZM37.15,37.7l-.03.04.02.13v.11c-.02.09-.04.18,0,.32.05.15.16.24.3.24h0c.17,0,.35-.14.37-.28.03-.28-.13-.4-.29-.51-.09-.06-.13-.09-.17-.11h-.06s-.06-.01-.06-.01l-.08.06ZM36.54,37.61l-.12.11c-.14.15-.29.31-.16.63l.02.05.16.04c.08.02.15.04.21.04.08,0,.14-.02.19-.07.06-.06.09-.16.08-.29,0-.08-.09-.43-.21-.51l-.04-.03-.12.03ZM37.84,37.48c-.04.08,0,.16.05.23.04.08.06.13.07.17.03.07.05.14.09.21.09.16.2.33.39.33.09,0,.18-.04.28-.09.06-.03.14-.07.23-.1l.09-.03v-.09c-.03-.1-.27-.33-.29-.35-.13-.09-.31-.16-.46-.23l-.2-.09-.13-.03h-.06l-.05.06ZM38.7,37.08l-.03.06.04.07,2.18,1.08.02-.15c.02-.11-.04-.19-.08-.24-.17-.25-.69-.67-.92-.78-.04-.02-.37-.15-.42-.16-.06,0-.13-.01-.21-.01h-.5s-.08.13-.08.13ZM35.85,37.43c-.13,0-.23.05-.31.1-.06.03-.12.06-.18.08l-.32.29-.08.08.08.08c.13.12.29.19.45.19.06,0,.11,0,.17-.03.18-.06.18-.18.18-.23.02-.01.08-.05.11-.12.03-.06.03-.11.03-.15,0,0,0,0,0,0,0,0,.04-.01.07-.06l.02-.04-.02-.1c-.12-.08-.16-.09-.2-.09ZM34.88,37.2c-.1,0-.17.06-.2.09-.22.07-.42.13-.49.27l-.02.04.02.13s.17.25.23.27c0,0,.01,0,.02,0,.2,0,.47-.21.51-.25.03-.03.24-.36.1-.5l-.03-.03-.13-.02ZM28.74,36.97l-.04.15.07.04c.27.15.28.29.17.62l-.04.11.15.03h.13s2.17-1.02,2.17-1.02v-.08c-.02-.06-.05-.14-.19-.17-.14-.02-.31-.03-.49-.03-.56,0-1.29.1-1.73.25h-.09s-.12.09-.12.09ZM43.87,36.71l-.04.04v.09c.03.12.32.8.48.87.08.03.25.04.27.04.12,0,.16-.01.18-.03.16-.18.14-.27.09-.36l-.04-.14c-.02-.11-.04-.22-.18-.34-.07-.06-.15-.09-.21-.11h0s-.03-.05-.08-.07c-.05-.02-.09-.02-.16-.02h-.18s-.05,0-.05,0l-.08.04ZM34.24,36.75c-.2.03-.74.16-.93.24-.06.03-.25.1-.21.33v.03s.07.08.07.08c.07.08.14.17.29.17.04,0,.09,0,.15-.02h.06s.04-.11.04-.11l.1-.02c.23-.09.49-.19.7-.34.14-.1.21-.19.18-.28l-.02-.09h-.09s-.25,0-.25,0h-.1ZM41.82,36.18l-.03.04.02.15c.03.12.41.58.5.64.06.04.12.07.19.1.07.03.14.07.19.11l.12.1.1-.19c.07-.2-.18-.7-.3-.8-.16-.12-.4-.2-.65-.22h-.07s-.08.06-.08.06ZM33.24,36.42c-.3,0-.54.08-.71.25-.05.04-.11.1-.09.21l.02.09h.72v-.13s.08.02.08.02c.06-.01.25-.06.25-.06l.05-.09s.04.01.06.01c.05,0,.11-.02.15-.09l.08-.13-.15-.03c-.17-.04-.33-.05-.47-.05ZM32.41,35.9c-.23,0-.71.09-.79.3l-.06.15h.73c.05,0,.1-.03.2-.08.05-.03.13-.08.16-.08h.15s-.06-.15-.06-.15c-.04-.09-.14-.13-.32-.13ZM43.3,35.13c.11.41.62.5.77.52h.09s.05-.08.05-.08c.05-.14-.17-.44-.19-.46-.12-.1-.28-.11-.43-.11h-.32s.03.14.03.14ZM31.7,34.91c-.33,0-.59.13-.7.36l-.07.13.15.02s.09.01.14.01h0c.17,0,.32-.04.47-.09.09-.03.18-.05.28-.07l.14-.16.07-.12-.14-.04c-.11-.03-.22-.05-.34-.05ZM41.38,35.13c.07.03.15.06.22.07.11.05.17.08.25.08l.16-.05-.02-.14-.23-.28c-.08-.09-.21-.14-.35-.14h-.12s-.1.1-.1.1l-.15-.06v.4s.09.01.09.01h.22s.04,0,.04,0ZM38.31,30.88c-.06,0-.12.02-.18.05-.09.27-.16.45-.22.64-.06.17-.12.34-.16.51l-.08.32c-.02.1-.01.24,0,.36,0,.1.01.21,0,.28l-.06.38.38-.46.5-.95c.03-.1.07-.18.1-.25.1-.2.19-.41.04-.7-.06-.11-.19-.19-.33-.19ZM37.12,28.08c-.14,0-.27.05-.36.13-.09.09-.21.4-.22.5-.13.96.06,2.05.23,3.02.05.28.1.55.13.81,0,.05,0,.11.01.17,0,.1,0,.2.03.3l.09.34.21-.61c.27-1.18.37-2.3.34-3.75,0-.06,0-.13,0-.2,0-.12.01-.24,0-.33v-.06s-.1-.08-.1-.08c.03,0,.03-.06,0-.1-.04-.06-.26-.12-.27-.12h-.11ZM35.77,30.6c-.09.1-.13.15-.17.19-.12.15-.26.32-.19.58v.06s.11.04.11.04c.08.25.25.56.41.88.09.17.17.33.26.5l.34.34v-.25c.03-.8-.17-1.62-.56-2.32l-.04-.08-.16.05ZM24.84,29.67c-.15,0-.27.11-.33.3-.05.15-.07.4.07.49.05.03.12.05.22.05.06,0,.38,0,.44-.18.04-.18.03-.41-.1-.53-.1-.09-.2-.14-.29-.14ZM31.33,25.99c-.17,0-.33,0-.45.01-1.11.08-1.76.67-2,1.8-.12.54,0,1.08.3,1.53.33.47.85.79,1.44.88.08.01.63.07.72.07.62-.12,1.28-.31,1.73-.9.69-.91.67-2.03-.06-2.86-.03-.07-.05-.12-.11-.18-.29-.28-1.02-.34-1.58-.34ZM42.98,25.68c-.42,0-1.01.2-1.26.38-.84.6-1.17,1.45-.89,2.31.31.96,1.27,1.68,2.25,1.68.5,0,.98-.19,1.39-.55.58-.52.79-1.26.59-2.02-.22-.84-.91-1.51-1.75-1.7-.09-.09-.2-.11-.33-.11ZM29.81,24.16s.01,0,.03.03c1.49.53,3,1,4.43,1.26.74.14,1.49.2,2.22.2,1.05,0,2.05-.14,2.97-.43.58-.18,1.12-.39,1.66-.59.84-.32,1.64-.63,2.54-.82.05,0,.1-.01.15-.01.18,0,.44-.02.53-.28v-.02s0,.02,0,.02l.66.11.85-.11v-.22c-.09,0-.17-.03-.24-.05-.1-.03-.21-.06-.34-.06h-.08c-.08.01-.14.03-.18.05l-.16.03c-.29,0-.5,0-.5.16l-.05-.03s-.08,0-.13,0c-.25,0-.59.05-.66.06-.9.17-1.81.49-2.7.8-.85.3-1.72.6-2.57.77-.5.1-1.06.15-1.64.15-1.97,0-4.06-.55-5.91-1.04l-.62-.16c-.11-.05-.2-.09-.27-.09h-.01l-.09-.06h-.29s0,.29,0,.29h.22v.12s.15-.06.15-.06h.03ZM36.39,23.31c0,.07-.01.14-.03.21-.03.09-.06.19-.04.32,0,.06.03.11.05.15.03.08.05.12.03.18l-.04.15h.18s.13-.02.13-.02c.14-.09.09-.68.09-.68-.03-.24-.1-.38-.21-.42l-.17-.06.02.17ZM35.38,23.32c-.11.24-.08.46.05.69,0,0,.1.17.22.17h.05l.07-.08v-.11c.01-.2.02-.36-.15-.57-.05-.07-.09-.13-.17-.13h-.04l-.03.02ZM37.55,23.12c-.09,0-.21.06-.29.28-.07.2-.12.56,0,.67l.03.03h.13s.06-.04.06-.04l.03-.04v-.1c.05-.07.11-.13.13-.22.04-.14.03-.29.02-.42v-.11s-.12-.05-.12-.05ZM38.75,23.01c-.15.18-.4.67-.14.92l.18-.12c.16-.31.17-.5.15-.73l-.02-.27-.17.21ZM33.83,23.17c-.07.08-.12.27-.11.34.02.13.16.38.36.38l.05-.02.1-.07c.04-.19-.02-.32-.08-.44-.02-.05-.05-.1-.07-.16l-.02-.08h-.15s-.07.05-.07.05ZM39.93,23.12c-.09,0-.18.06-.24.14-.05.07-.15.29-.07.44.02.04.08.11.2.11h.09s.02-.09.02-.09c.01-.07.05-.14.08-.21.02-.05.05-.1.07-.15l.02-.05-.03-.12-.03-.05-.1-.02ZM30.49,23.04c-.11.23-.04.34.03.45l.04.08.14.06.06-.02.11-.08c.06-.19.02-.33-.05-.48l-.03-.06h-.27l-.03.06ZM40.99,22.98l-.02.08s-.11.38.02.5l.03.03.08.02h.07l.07-.1s.24-.35.14-.49l-.03-.05h-.35ZM27.34,23.26c-.13,0-.21.05-.26.14l-.06.14h.15c.12.04.18.05.23.05h0c.13,0,.21-.08.22-.21v-.13s-.12.01-.12.01h-.16ZM46.35,23.49c.75-.07,1.38-.15,2-.44.11-.03.17-.05.23-.1l.05-.04-.05-.2-.14-.02-.02-.03-.13-.05-.19-.04c-.49-.11-1.05-.24-1.46-.42h-.02s-.23-.04-.23-.04c-.07-.03-.15-.07-.22-.07h-.05l-.08.05s-.05.09-.05.15v.07s1.64.59,1.64.59h0c-.08,0-.2.05-.23.06-.19.06-.36.07-.52.07h-.03c-.2,0-.32,0-.44.02,0,0-.41.09-.46.25l-.02.07.07.08.03.03h.1s.23,0,.23,0ZM25.45,22.86v.14c.09.08.15.1.2.11.03.05.1.08.15.09h.12c.21,0,.24-.01.26-.03l.16-.35c.08.09.18.09.21.09.08,0,.18-.03.36-.08.51-.13.96-.28,1.41-.42.29-.09.57-.19.86-.27.53-.15,1.07-.31,1.62-.47.8-.23,1.59-.46,2.35-.68,1.56-.47,3.33-.75,4.74-.75.4,0,.77.02,1.11.07.05,0,.1,0,.15,0,.07,0,.33-.02.39-.02.04,0,.08,0,.12,0,.04,0,.08.02.13.04.08.03.17.06.27.06.05,0,.1,0,.14-.02l.08-.02v-.1c0-.1-.12-.18-.14-.2-.32-.21-.87-.31-1.68-.31-.4,0-.79.02-1.11.04l-.27.02c-2.14.11-3.75.62-5.6,1.2l-.55.17c-.38.12-.77.25-1.15.37-.78.26-1.52.5-2.22.67l-.19.05c-.23.05-.43.1-.67.21-.06.03-.11.06-.16.09-.04.03-.09.06-.14.08l-.11.05h-.71l-.1.18ZM31.28,22.07c0,.16,0,.3.07.38l.03.03.09.02h.03l.09-.03c.21-.12.11-.29.08-.35l.04-.14-.17-.07h-.25s0,.15,0,.15ZM37.16,21.81s-.03.08-.05.12c-.05.11-.11.24-.02.43l.06.11.1-.07c.09-.06.28-.28.27-.44v-.07s-.11-.05-.11-.05c0-.03-.05-.1-.12-.11l-.1-.02-.03.1ZM39.84,21.81c-.13.19-.13.3,0,.49l.11.15.27-.55-.32-.17-.06.08ZM41.1,21.35c-.22.14-.32.41-.29.8v.1s.11,0,.11,0c.26,0,.4-.41.41-.64,0-.24-.12-.27-.16-.27h-.04s-.03.02-.03.02ZM36.24,21.37c0,.07,0,.14,0,.22,0,.06,0,.11,0,.17v.08s.06.03.06.03c0,0,.01,0,.02,0,.23,0,.28-.29.28-.29,0-.08-.02-.14-.05-.19v-.04s-.06-.09-.06-.09l-.03-.03-.08-.02h-.1l-.05.17ZM23.57,40.45c-.01-.06-.03-.13-.03-.19-.04-.53.14-1.26.26-1.79l.03-.19c.04-.11.35-.2.74-.2.19,0,.27.02.28.03-.11.16-.19.32-.28.49-.21.41-.43.83-.53,1.24-.05.11-.09.19-.06.28l.02.04.07.05-.13-.03-.1.08c-.02.07-.15.26-.24.34,0-.05-.02-.1-.03-.15ZM44.75,32.81c-.08,0-.12-.15-.15-.22-.02-.07-.04-.13-.06-.17-.16-.33-.39-.4-.56-.4-.15-.11-.15-.39-.15-.64.08-.05.15-.06.17-.06.02,0,.04.03.06.15.02.08.04.17.09.24.07.12.24.19.45.19s.46-.07.54-.24c.04-.08.1-.22-.04-.3l-.07-.12s0-.06,0-.1c0-.05,0-.09,0-.13,0,0,.01.01.03.01.04,0,.11-.04.13-.04.02.01.1.16.14.23.1.18.2.36.38.36.09-.02.28-.15.3-.21.1-.28-.12-.43-.28-.53-.13-.09-.22-.15-.22-.24.03-.03.23-.12.29-.12h0c.19,0,.27.12.37.31.1.17.21.36.44.36.05,0,.11,0,.16-.03.04-.01.05-.02.26-.26.05-.06.1-.12.12-.13.03-.17-.18-.39-.22-.4-.07-.04-.15-.06-.22-.08-.1-.03-.19-.06-.28-.14-.05-.05-.05-.11-.03-.15.03-.07.11-.13.18-.13l.35.32.64.28.03-.13h.03s.08-.02.08-.02c.14-.1.26-.34.19-.53-.04-.11-.22-.2-.6-.37-.11-.05-.21-.1-.26-.12-.03-.02-.11-.11-.12-.14,0,0,0,0,0,0,.02,0,.05-.04.07-.07.05-.07.08-.11.14-.12.1.14.32.22.54.3.04.02.06.08.13.09.04,0,.11.01.16.01.15,0,.24-.01.29-.04.05-.03.19-.23.19-.25.03-.08.04-.2.06-.31,0-.06.01-.13.02-.17.05-.11.1-.19.07-.29l-.02-.07h-.07c-.15-.02-.3-.03-.45-.03s-.29,0-.43.03c-.06,0-.1.03-.14.05s-.07.03-.11.03c-.03,0-.1-.1-.11-.13-.02-.06.05-.2.09-.21.05,0,.1,0,.15,0,.09,0,.17,0,.26.01.1,0,.19.01.29.01.23,0,.53-.03.73-.28l.02-.03v-.1c.05-.03.08-.06.11-.09l.04.04c.13.13.3.29.26.43-.1.11-.15.17-.19.23-.13.16-.28.36-.02.65l.28.19c-.03.09-.1.11-.24.15-.06.01-.11.03-.16.05-.21.09-.26.33-.27.41.05.21.16.29.25.37.04.03.08.07.12.11,0,0-.47,0-.47,0-.06,0-.31.17-.33.23-.05.16.03.48.06.58v.04s.08.05.08.05c.01.06.03.11.05.16-.02,0-.03,0-.05,0-.12,0-.19-.02-.26-.03-.09-.02-.19-.05-.29-.05-.07,0-.13,0-.19.03-.08.02-.24.18-.26.26-.02.1-.02.26,0,.43v.13s0,0,0,0c-.02,0-.04.01-.05.02,0,0-.09,0-.11,0-.09,0-.14,0-.14,0-.13-.09-.29-.1-.42-.1-.18,0-.24.02-.28.04-.08.04-.17.22-.17.22-.04.07-.06.17-.09.28-.03.1-.09.31-.13.33,0,0-.04,0-.12-.11-.12-.19-.23-.36-.41-.36-.35.06-.44.26-.52.44-.03.06-.06.13-.1.18-.01,0-.02.01-.04.01Z"/>
              </g>
            </g>
            <circle class="cls-2" cx="37.5" cy="38.35" r="22.48"/>
          </g>
        </g>
        <g>
          <text class="cls-4" transform="translate(24.61 62.03) rotate(24.64)"><tspan x="0" y="0">E</tspan></text>
          <text class="cls-4" transform="translate(28.3 63.69) rotate(16.3)"><tspan x="0" y="0">S</tspan></text>
          <text class="cls-4" transform="translate(31.87 64.73) rotate(7.83)"><tspan x="0" y="0">T</tspan></text>
          <text class="cls-4" transform="translate(36.06 65.28) rotate(-1.14)"><tspan x="0" y="0">D</tspan></text>
          <text class="cls-4" transform="translate(40.29 65.13) rotate(-8.6)"><tspan x="0" y="0">1</tspan></text>
          <text class="cls-4" transform="translate(43.05 64.72) rotate(-15.23)"><tspan x="0" y="0">9</tspan></text>
          <text class="cls-4" transform="translate(46.35 63.8) rotate(-22.57)"><tspan x="0" y="0">9</tspan></text>
          <text class="cls-4" transform="translate(49.52 62.45) rotate(-29.47)"><tspan x="0" y="0">7</tspan></text>
        </g>
        <text></text>
        <g>
          <text class="cls-6" transform="translate(26.09 17.56) rotate(-23.74)"><tspan x="0" y="0">B</tspan></text>
          <text class="cls-6" transform="translate(29.81 15.98) rotate(-16.14)"><tspan x="0" y="0">I</tspan></text>
          <text class="cls-6" transform="translate(31.97 15.29) rotate(-8.55)"><tspan x="0" y="0">T</tspan></text>
          <text class="cls-6" transform="translate(35.91 14.69) rotate(1.03)"><tspan x="0" y="0">T</tspan></text>
          <text class="cls-6" transform="translate(39.88 14.76) rotate(10.36)"><tspan x="0" y="0">E</tspan></text>
          <text class="cls-6" transform="translate(43.6 15.4) rotate(20.06)"><tspan x="0" y="0">R</tspan></text>
          <text class="cls-6" transform="translate(47.61 16.89) rotate(29.5)"><tspan x="0" y="0">S</tspan></text>
        </g>
      </g>
      <rect class="cls-1" y=".97" width="279.73" height="73.81"/>
    </g>
  </g>
</svg>