<?xml version="1.0" encoding="UTF-8"?>
<svg id="_レイヤー_2" data-name="レイヤー 2" xmlns="http://www.w3.org/2000/svg" xmlns:xlink="http://www.w3.org/1999/xlink" viewBox="0 0 55.71 55.71">
  <defs>
    <style>
      .cls-1, .cls-2 {
        fill: none;
      }

      .cls-2 {
        stroke: #000;
        stroke-miterlimit: 10;
        stroke-width: .56px;
      }

      .cls-3 {
        clip-path: url(#clippath);
      }
    </style>
    <clipPath id="clippath">
      <circle class="cls-2" cx="27.86" cy="27.86" r="20.45"/>
    </clipPath>
  </defs>
  <g id="_レイヤー_1-2" data-name="レイヤー 1">
    <g>
      <g>
        <g>
          <circle class="cls-1" cx="27.86" cy="27.86" r="26.04"/>
          <path d="M27.86,1.82c14.38,0,26.04,11.66,26.04,26.04s-11.66,26.04-26.04,26.04S1.82,42.23,1.82,27.86,13.48,1.82,27.86,1.82M27.86,0C12.5,0,0,12.5,0,27.86s12.5,27.86,27.86,27.86,27.86-12.5,27.86-27.86S43.21,0,27.86,0h0Z"/>
        </g>
        <g>
          <g class="cls-3">
            <g>
              <path d="M18.39,19.11s-.05,0-.08-.02l-.11-.03c-.42-.09-.75-.27-1.15-.63-.09-.08-.31-.31-.34-.35-.02-.06.07-.17.16-.28.11-.14.23-.31.23-.49,0-.08-.07-.27-.12-.33-.03-.04-.08-.09-.17-.16-.05-.04-.09-.08-.11-.1-.07-.09-.11-.24-.09-.29.09,0,.16.08.19.11l.08.07s.09.02.13.02h0c.11,0,.2-.06.25-.16.06-.14.04-.32-.07-.45-.08-.1-.2-.2-.32-.31-.11-.1-.22-.2-.3-.29-.16-.19-.23-.27-.19-.44,0,0,0,0,0,0,0,0,.06-.02.15-.02.06,0,.09,0,.1.01.41.21.84.4,1.25.58l.51.22c.23.09.55.22.67.41.14.21.06.41-.03.65-.03.09-.06.17-.09.26-.03.12-.06.25-.09.38-.04.19-.08.38-.14.55-.06.17-.14.19-.21.19-.12,0-.27-.08-.41-.16-.05-.03-.1-.07-.14-.11-.04-.04-.08-.07-.12-.09-.11-.07-.21-.1-.31-.1-.14.02-.31.19-.32.24-.05.24.02.42.18.5.08.04.25.09.44.15.21.06.59.17.64.23.03.06.02.13,0,.23,0,0-.07,0-.08,0ZM17.68,16.61c-.1,0-.16.04-.19.08-.06.07-.09.17-.08.32.02.34.6.8.91.81h0c.19,0,.26-.09.3-.14.06-.11.05-.26-.03-.41-.07-.13-.35-.4-.47-.48-.12-.08-.29-.17-.44-.17Z"/>
              <path d="M23.62,21.41c-.12-.02-.25-.2-.26-.27.01-.04.17-.16.23-.17.02,0,.12.06.16.09v.02s.06.13.06.13c0,.01.02.02.02.03-.03.02-.05.05-.07.08-.05.06-.07.09-.15.09Z"/>
              <path d="M30.16,20.26c-.09,0-.11-.07-.11-.13,0-.11.07-.27.24-.27.02,0,.05,0,.08.07.04.11,0,.24-.03.26l-.17.09v-.02Z"/>
              <path d="M30.76,20.92s-.05,0-.06-.02c-.02-.03-.02-.1,0-.18.03-.12.1-.18.19-.18.06,0,.11.03.14.08.03.06,0,.13-.07.21-.07.07-.14.09-.19.09Z"/>
              <path d="M31.68,21.4c-.12-.04-.12-.1-.11-.15.02-.11.13-.22.22-.22l.07.11s0,.09-.03.14c-.04.08-.08.13-.12.13h-.03Z"/>
              <path d="M30.86,21.73s-.05,0-.07-.03c-.02-.03-.03-.07-.03-.14,0-.09.1-.17.19-.17.05.01.11.08.12.1,0,.06-.02.12-.05.15-.04.05-.11.08-.17.08Z"/>
              <path d="M33.02,22.68s-.05-.01-.09-.04c0-.07-.03-.14-.06-.19,0-.11.09-.15.16-.15l.1.05c0,.09-.01.23-.07.3l-.05.03Z"/>
              <path d="M31.93,22.32s-.04,0-.05-.01c-.05-.07-.05-.17-.03-.23.01-.03.05-.07.11-.07.03,0,.07,0,.11.03.04.02.03.07.03.1-.02.09-.09.18-.17.18Z"/>
              <path d="M24.32,20.72c-.06,0-.12-.03-.15-.07-.03-.04-.03-.09-.02-.13h.24s.02.03.02.03l.03.09-.12.09Z"/>
              <path d="M24.79,20.19c-.09,0-.17-.08-.17-.19,0,0,.07,0,.09,0,.1.03.12.06.13.12l-.05.08Z"/>
              <path d="M32.68,21.71c-.02-.09.02-.21.07-.28l.11.04s-.04.14-.09.21l-.05.04h-.04Z"/>
              <path d="M22.31,19.76c-.05,0-.1,0-.15-.01-.34-.05-.84-.27-1.08-.56-.12-.15-.17-.22-.23-.4l-.02-.04-.06-.03c-.14-.65.31-1.42.97-1.6.14-.04.31-.06.49-.06.28,0,.57.05.78.13.53.21.79.87.72,1.36-.09.63-.76,1.2-1.42,1.2ZM21.25,17.76c-.11,0-.28.19-.29.26-.01.11,0,.55.23.59l.09.02.14-.43c.01-.07.03-.37-.13-.44h-.05Z"/>
              <path d="M32.77,19.68c-.28,0-.54-.08-.76-.25-.46-.33-.74-.95-.68-1.49.08-.71.74-1.09,1.35-1.09.31,0,.6.09.84.26.13.09.45.44.52.59.15.3.28.89.15,1.19-.06.13-.4.45-.55.54-.28.16-.58.24-.86.24Z"/>
              <path d="M29.55,63.03h-.08s0-.07,0-.1c.05-.28.3-.55.54-.81.27-.3.55-.6.57-.94,0-.05,0-.19-.02-.25-.01-.05-.26-.3-.32-.32-.06-.02-.23-.02-.33-.02-.1,0-.2,0-.24,0-.21.03-.45.11-.67.19-.21.07-.41.15-.59.17-.03,0-.08,0-.13,0-.14,0-.2-.03-.21-.03l.06-.11c.16-.68.59-1.14,1.37-1.46.4-.16.82-.24,1.3-.24.44,0,.89.07,1.33.13.45.07.91.13,1.38.13.16,0,.33,0,.5-.03.94-.11,2.02-1.38,2.35-2.21.14-.34.26-.82.22-1.17-.02-.14-.11-.26-.26-.34-.31-.16-.87-.24-1.27-.24-.09,0-.17,0-.23.01-.19.02-.41.12-.62.22-.11.05-.22.1-.32.14-.56.2-1.21.29-1.93.29-.53,0-1.08-.05-1.65-.16-.26-.05-.67-.12-.84-.28-.04-.04-.09-.14-.13-.22-.04-.08-.07-.16-.11-.21-.11-.14-.25-.22-.42-.22-.08,0-.17.02-.28.05h-.04s-.04.09-.04.09c-.07-.02-.17-.07-.27-.12-.11-.05-.23-.11-.35-.11h-.05s-.08.04-.08.04l-.03.03v.09s.02.09.02.09l.1.03v.02s.15.13.15.13c.16.1.52.22.78.3l.06.02-.1.02c-.14.02-.27.05-.42.05-.07,0-.14,0-.21,0-.18,0-.35,0-.53-.02-.12,0-.24-.01-.36-.02.03,0,.06,0,.09,0,.12,0,.25-.01.32-.12.04-.07.04-.16,0-.28l-.03-.07h-.07s-.21,0-.23,0c-.05,0-.07,0-.1,0-.05,0-.1.03-.14.04-.05.02-.09.03-.13.03-.1-.04-.17-.21-.17-.25,0-.08.13-.23.2-.26.28-.12.63-.16.97-.21.25-.03.49-.06.71-.12.16.01.34.01.53.01.88,0,1.83-.08,2.97-.25h.03s.08-.09.08-.09c.08-.07.15-.14.15-.32,0-.33-.37-.42-.62-.49-.06-.02-.12-.03-.17-.05-3.19-1.12-4.89-2.53-7.38-4.73-.78-.68-1.57-1.35-2.36-2.02-.81-.68-1.63-1.37-2.42-2.07-1.43-1.26-2.54-2.89-3.6-4.45l-.31-.46c-.89-1.3-.98-2.08-1.17-3.65-.31-2.62-.33-4.63-.06-6.55.13-.95.32-1.88.5-2.78.25-1.27.52-2.58.63-3.94.02-.24,0-.51,0-.77-.01-.28-.03-.57,0-.82.03-.27.07-.55.1-.83.18-1.35.38-2.89.09-4.21-.04-.19-.11-.41-.19-.62-.19-.57-.38-1.15-.16-1.56.12-.22.36-.37.72-.46.32-.08.65-.13.99-.18.37-.06.74-.12,1.11-.21,1.14-.3,2.21-.75,3.24-1.18,1-.42,2.03-.86,3.13-1.16,1.16-.31,2.17-.46,3.19-.46.85,0,1.75.11,2.73.33l.16.03c.2.04.58.12.67.16.15.06.36.13.55.18,1.06.3,2.15.74,3.21,1.17.43.17.86.35,1.28.51l.17.07c.68.26,1.45.56,2.21.7.16.03.33.04.5.06.21.02.42.04.61.08.05.01.19.14.21.19.03.1.03.62.01.81-.02.19-.08.38-.16.57-.05.15-.11.3-.14.45-.14.66-.11,1.28-.08,1.94v.21c.02.2.02.4.02.61,0,.38,0,.77.05,1.13.3,2.57.86,4.8,1.67,6.62.41.93.9,1.79,1.37,2.63.57,1.02,1.17,2.07,1.62,3.23,1.14,2.91,1.83,6.32,2.43,9.56.29,1.59.54,3.22.78,4.81.16,1.09.33,2.17.51,3.24.14.82.25,1.29.58,2.07.18.43.36.88.54,1.32.31.77.62,1.57,1,2.37l.12.24c.14.27.29.58.33.84,0,.06,0,.12,0,.19,0,.08,0,.16,0,.23.02.16.2.47.41.83l.11.19c.14.26.29.52.45.78.15.26.3.51.44.77l.06.11c.08.15.34.61.36.69-.04.13-.1.17-.17.21-.1.05-.21.11-.26.24,0-.02,0-.02-.02-.02-.02,0-.07.02-.11.04-.08.04-.15.07-.23.07l-.08-.06c-.17-.07-.39-.21-.65-.41-1.37-1.06-2.71-2.94-3.45-4.22l.09-.29-.3.1-.05.03-.06.1v.02s.04.1.04.1c.39,1.75,2.5,3.76,3.64,4.84.1.07.17.12.17.14-.27.18-.37.26-.49.26-.08,0-.17-.03-.3-.11-.21-.12-.46-.31-.7-.48l-.31-.22c-.83-.58-1.33-.99-1.96-1.77-.06-.07-.13-.11-.18-.15-.04-.02-.07-.04-.09-.07l-.04-.04-.17.04-.04.13c.15.37.37.72.68,1.08.4.46.93.85,1.4,1.2.11.08.21.15.32.22.14.1.29.19.42.3v.02s-1.33-.71-1.33-.71c-1.53-1.09-3.26-1.95-4.79-2.7-.47-.23-.93-.42-1.44-.63-.12-.05-.23-.1-.35-.15-.5-.22-1.01-.45-1.54-.45-.3,0-.57.07-.83.22-.47.27-.91,1.07-.88,1.59.02.32.23.38.41.44l.02.06h.06c.08.03.36.06.84.08.07,0,.14,0,.21,0,.25,0,.5-.02.75-.04.24-.02.49-.04.74-.04.1,0,.19,0,.29.01.02.04.02.16.01.31,0,.12-.02.23.06.31l.03.03.14.03c.07,0,.16-.02.28-.07.03-.01.07-.04.15-.1l.1-.07c.11-.06.18-.1.23-.12.02.13.02.27-.03.34-.03.04-.08.07-.15.08l-.37.06c-.34.05-.68.1-1.02.19-.32.08-.64.19-.96.3,0,0,0,0,0,0,.03-.04.06-.08.06-.13v-.09s-.08-.02-.08-.02c-.04,0-.07-.02-.1-.03-.06-.02-.13-.04-.21-.04-.12.01-.15.04-.17.07l-.2-.03.05.2c.06.12.22.17.36.18-.32.11-.65.21-.99.27-.3.06-.61.09-.91.13-.24.03-.47.05-.7.09-1.41.23-2.85.72-4.23,1.2l-.33.11c-.12.04-.24.09-.35.13-.21.08-.41.17-.64.21-.28.06-.58.1-.87.14-.36.05-.73.1-1.09.19h-.05s-.04.1-.04.1v-.03ZM30.27,62.24c-.13.11-.12.2-.1.25.03.09.13.14.27.14h0c.08,0,.15-.02.21-.05l.06-.04v-.14c-.03-.07-.08-.14-.14-.17-.05-.03-.09-.05-.15-.05h-.04l-.12.07ZM31.47,61.62l-.06.05.03.07c.14.33.5.47.8.56l.09.03.05-.15-.07-.13c-.08-.11-.32-.31-.42-.35-.02,0-.25-.09-.34-.09h-.03l-.04.02ZM31.98,61.09l-.03.04.02.15.02.05.08.04c.02.13.04.19.06.22.16.26.59.33.82.33h.16v-.15c-.05-.11-.15-.15-.23-.18-.18-.1-.27-.18-.35-.26-.08-.06-.15-.13-.22-.18-.1-.07-.16-.1-.22-.1h-.05l-.06.05ZM33.65,60.81l-.02.06c-.02.05-.02.14.06.24.11.14.33.26.49.26h.03l.09-.03.08-.15.04-.1-.11-.03s-.06-.05-.09-.07c-.18-.12-.3-.19-.45-.19h0l-.13.02ZM31.15,60.14c-.14.22-.06.32-.02.36.12.32.21.51.64.53h.06s.06-.11.06-.11v-.12c-.17-.18-.34-.35-.52-.52-.05-.07-.1-.15-.2-.15h-.03ZM35.15,60.32v.06c0,.08.08.15.15.21.32.23.62.35.9.35.05,0,.1,0,.15-.01h.02s.09-.04.09-.04l.12.03.08-.15v-.04s-.03-.09-.03-.09l-.11-.04c-.23-.03-.33-.08-.49-.15l-.79-.19-.07.06ZM33.65,60.32l-.03.04.02.12c.06.15.41.38.64.38h0c.11,0,.19-.05.24-.13l.04-.08-.17-.11c-.1-.07-.21-.13-.32-.18l-.19-.08-.1-.02h-.05l-.07.06ZM31.94,59.49c-.08.09-.05.29-.04.35.02.13.19.53.28.64.1.11.31.21.53.29.06.03.09.04.14.04l.15-.05-.04-.13-.26-.29c-.18-.21-.33-.45-.48-.68l-.08-.07.02-.09-.07-.05h-.05s-.05,0-.05,0l-.06.05ZM28.82,60c-.14,0-.26.07-.33.18-.08.12-.08.28,0,.42.11.06.2.08.3.08.15,0,.26-.04.33-.11.04-.04.08-.11.06-.22,0-.05-.12-.3-.21-.33-.05-.02-.09-.02-.14-.02ZM29.84,59.65l.03.21c.07.19.49.53.64.55h0c.11,0,.21-.04.22-.14.01-.13-.49-.53-.49-.53l-.16-.08h-.09s-.16,0-.16,0ZM29.53,60.06c0,.15.11.3.33.3v-.2c-.09,0-.13-.05-.13-.1h-.2ZM35.66,59.66l-.16.12.21.13c.44.28.97.43,1.54.43l1.02-.19-.04-.11c-.05-.14-.22-.15-.3-.16-.24-.03-.48-.03-.73-.03-.33,0-.67,0-.99-.07-.03,0-.08-.02-.14-.05-.15-.06-.27-.09-.34-.09h-.03l-.05.03ZM34.41,59.77l-.02.04.02.1c.05.1.18.21.27.24.05.02.1.03.15.03h.07s.07-.09.07-.09c.03-.18-.1-.24-.17-.28v-.04s-.11-.06-.11-.06h-.09s-.07-.01-.07-.01l-.13.06ZM40.03,59.41c-.26,0-.52,0-.78.03h-.07s-.05.19-.05.19l.11.09.13.06c.26.05.5.08.73.08.25,0,.48-.03.67-.1.2-.07.18-.19.16-.24l-.02-.06h-.07c-.27-.02-.54-.03-.81-.03ZM36.26,58.89l-.03.15.11.1c.32.2.68.3,1.08.3.07,0,.14,0,.21,0l.53-.13-.03-.19h-.02c-.23,0-.4-.03-.57-.06l-.24-.04c-.09-.01-.18-.02-.27-.03-.12,0-.24-.02-.35-.04-.14-.05-.2-.07-.27-.07h-.01l-.13.03ZM36.5,58.24c.17.21.4.31.7.31.07,0,.15,0,.23-.02l.66-.28-1.74-.2.15.19ZM37.08,57.21c-.16,0-.26.04-.29.12l-.04.09s.19.1.25.13c.18.1.36.21.58.21.05,0,.1,0,.16-.02l.6-.19-.48-.15c-.11-.04-.22-.08-.32-.1-.09-.02-.25-.06-.33-.07-.03,0-.08,0-.13,0ZM37.22,56.46l-.21.17.31.19c.23.14.44.28.74.28h0c.05,0,.11,0,.17-.02l.09-.02v-.09c-.03-.21-.2-.21-.28-.22-.11-.02-.55-.19-.66-.23l-.1-.08h-.03l-.04.02ZM38.33,56.51c.28.09.46.15.68.15.06,0,.11,0,.18-.01l.11-.02-.02-.14c-.05-.17-.6-.3-.61-.3-.04,0-.08,0-.12,0-.13,0-.24.03-.37.08l-.14.05.09.17.03.04h.08s.07,0,.07,0h0ZM37.59,53.55c-.16,0-.27.03-.33.1l-.04.04v.1s0,.05,0,.05l.08.03s.05.06.09.11c.05.05.09.1.12.14.05.07.1.15.15.24.06.1.13.21.2.29.4.49.9.72,1.44.98.16.07.32.15.48.24.16.08.32.17.47.26.19.11.38.21.57.31.03.03.08.09.17.09l.1-.02.06-.02v-.06c.05-.21.02-.28-.07-.36-.35-.45-.67-.81-1-1.17l-.27-.3c-.06-.07-.11-.13-.16-.19-.11-.15-.22-.29-.42-.42-.15-.1-.37-.23-.51-.27-.13-.04-.26-.05-.39-.06l-.16-.02-.12-.02c-.13-.02-.31-.05-.47-.05ZM32.4,55.65l-.21-.21-.14-.12-.11-.04c-.15-.08-.33-.13-.46-.13h-.17s.06.14.06.14c.03.06.29.31.36.32h.11s.22,0,.22,0l.33.04ZM29.57,54.88l-.05.05.17.34c.18.19.37.35.62.35h.09l.05-.09s0-.08,0-.12c.02,0,.05,0,.08,0h.1s.11.07.15.09l.15.05h.14s.25.02.25.02l-.13-.19-.21-.25c-.06-.04-.11-.07-.15-.1-.12-.08-.24-.16-.34-.16h-.05l-.08.06c-.04.05-.06.13-.04.24-.12-.09-.48-.32-.63-.32h-.04l-.06.04ZM32.43,54.94c.16.21.46.46.75.46h0c.13,0,.24-.04.34-.13l.13-.12-.17-.05c-.14-.04-.28-.12-.42-.19l-.1-.05c-.14-.07-.31-.17-.43-.25h-.02s-.08-.03-.08-.03h-.08l-.04.08-.03.13.1.04.05.1ZM31.32,54.86l.05.04c.23.18.48.35.82.35h.12s-.03-.12-.03-.12c-.03-.13-.12-.21-.19-.27-.04-.03-.08-.06-.1-.09l-.04-.05h-.06s-.11-.05-.11-.05h-.42s-.05.19-.05.19ZM33.24,54.29c-.12,0-.23.01-.34.03l-.16.03.1.13c.16.19.34.33.54.41l.11.02.02.06h.09s1.25.12,1.25.12v-.3s-.09,0-.09,0c-.12,0-.19-.06-.26-.11-.08-.05-.16-.11-.22-.14-.36-.17-.72-.25-1.04-.25ZM44.49,54.59l.06-.08c.05-.19-.11-.28-.21-.34-.03-.02-.07-.04-.09-.06-.36-.3-.71-.6-1.07-.91l-.26-.24c-.43-.4-.83-.77-1.43-.97-.13-.04-.29-.08-.45-.11l-.23-.05c-.06-.03-.11-.06-.17-.06h-.04l-.08.05-.05.05.03.06c.24.5.52,1.01.92,1.31.17.13.35.21.52.29l.21.1.28.14c.53.26,1.07.54,1.62.76l.16.08h.18s.09,0,.09,0ZM45.01,49.86c-.11,0-.2.04-.27.13-.2.25-.1.46-.01.64.25.52,1.39,1.41,1.87,1.77l.19.13c.09.06.18.13.26.19l.03.02.08.02c.08,0,.15-.05.19-.13-.11-.31-.22-.53-.33-.75-.12-.24-.23-.48-.37-.73-.21-.4-.39-.75-.78-.95-.15-.08-.53-.26-.7-.31-.07-.02-.12-.03-.17-.03ZM27.66,48.9c-.16.1-.11.34-.04.54.38,1.17,2.07,2.67,3.31,2.92-.03,0,0,.08.1.08l.11-.04.03-.03v-.07c0-.12-.15-.34-.94-1.06l-.24-.23c-.16-.15-.36-.35-.45-.48-.07-.11-.13-.23-.2-.35-.08-.15-.16-.31-.25-.44-.25-.34-.79-.6-1.28-.81h-.02s-.09-.02-.09-.02h-.03ZM34.78,48.64l-.06.02v.65c0,.5.8,1.16,1.39,1.62.47.36.91.64,1.42.94.15.13.2.17.25.19,0,0,.17.07.29.07h.09l.07-.13c-.01-.16-.12-.25-.2-.33-.03-.02-.06-.05-.08-.07-.18-.2-.37-.4-.55-.59-.43-.45-.83-.87-1.17-1.39,0-.03,0-.08-.02-.12-.26-.37-.87-.69-1.18-.82,0,0-.05-.08-.15-.08h-.02l-.08.02ZM33.42,32.59c-.06.07-.08.18-.06.35.09.77.87,1.85,1.5,2.55.57.63,1.18,1.24,1.79,1.85.57.57,1.15,1.15,1.7,1.75,1.63,1.77,3.19,3.7,5.05,6.26.44.61.87,1.24,1.3,1.88.54.79,1.09,1.6,1.67,2.37.17.23.36.45.54.67.16.19.32.38.46.57l.03.03.2.02.03-.06c.06-.12.03-.2,0-.26-.1-.56-.2-1.06-.29-1.55-.08-.43-.16-.85-.23-1.26-.09-.52-.18-1.04-.28-1.57-.12-.67-.25-1.34-.36-2.01,0-.05-.02-.1-.03-.16-.02-.09-.04-.18-.04-.27l-.25-.24c.09-.11.06-.33.06-.37-.02-.14-.07-.21-.15-.21h-.03l-.03.02c-.18.13-.12.29-.09.39.02.04.03.08.03.12v.13s.07-.02.07-.02c-.04.12,0,.24.03.32l.07.5c.04.39.07.8.16,1.17,0,.04,0,.1,0,.16,0,.06-.01.13,0,.19.07.51.17,1.03.26,1.55.09.47.17.94.24,1.41l.14.67-.03-.03c-.09-.18-.26-.41-.44-.65-.32-.43-.68-.91-.73-1.32-.12-1-.22-1.99-.31-2.98-.12-1.32-.25-2.68-.45-4.04,0-.05-.01-.1-.01-.15,0-.11-.01-.22-.06-.35l-.07-.08.06-.17-.24.04-.07.18c-.02.19-.02.62,0,.8.05.43.09.86.13,1.29l.07.73c.03.27.06.54.09.82.12.97.24,1.97.15,2.88-.65-.74-1.07-1.43-1.01-2.38.09-1.37.05-2.59,0-3.93,0-.11,0-.21,0-.32,0-.11,0-.22,0-.33v-.23s-.17.16-.17.16c-.12.12-.11.31-.1.48,0,.07.01.14,0,.2-.08.55-.09,1.12-.1,1.66,0,.29-.01.58-.03.87-.02.26-.05.53-.08.8l-.05.46c0,.07,0,.14,0,.21,0,.05,0,.09,0,.14h-.03c-1.08-1-1.03-2.16-.84-3.59v-3.39s-.2-.02-.2-.02l-.13.82c-.03.28-.05.56-.08.83-.03.41-.07.82-.13,1.23-.03.25-.01.57,0,.89.02.34.05.7,0,.92l-.08.11s-.04.14-.07.15c-.06-.05-.39-.38-.42-.43-.35-.45-.53-1.13-.46-1.73.03-.27.06-.55.08-.83l.06-.6c.06-.54.03-1.14,0-1.72-.02-.53-.05-1.08,0-1.58,0-.15-.07-.29-.19-.35l-.13-.06v.15c-.01.08-.01.17,0,.25,0,.09,0,.17,0,.26-.02.32-.06.66-.1,1-.08.71-.17,1.45-.13,2.11,0,.15.02.29.04.43.04.41.08.76-.1,1.22-.01,0-.06.03-.07.09h-.02c-.4-.37-.66-.76-.75-1.19-.05-.85-.02-1.75,0-2.63.03-.95.06-1.94,0-2.88,0-.08-.02-.17-.04-.25-.02-.1-.04-.2-.04-.29v-.06s-.24-.16-.24-.16v.17c-.01.1,0,.21,0,.31,0,.1,0,.2,0,.3l-.04.82c-.04.71-.07,1.43-.06,2.15v.34c.02.52.02.96-.1,1.49,0,.02-.02.03-.03.04l-.05-.06-.12-.06c-.13-.13-.64-.85-.72-1.02-.09-.19-.08-.24-.05-.35.01-.06.03-.12.04-.22.13-1.45.08-3.11-.13-5.07l-.14-.26-.18-.31v5.33l-.42-.36c-.41-.47-.41-.77-.4-1.23,0-.17,0-.36-.01-.58-.02-.25-.06-.51-.1-.78l-.06-.43s0-.09,0-.14c0-.19-.01-.51-.32-.53h-.14s.04.13.04.13c.1.33.13.76.1,1.31,0,.03-.01.07-.03.11-.02.05-.03.1-.04.15,0,.05,0,.12,0,.18,0,.14,0,.34-.06.41-.01.01-.04.03-.1.03-.42-.05-.96-.71-1.18-1.15-.21-.41-.2-.71-.18-1.08,0-.18.01-.37,0-.58-.05-.63-.2-1.28-.34-1.91l-.12-.54v-.1c-.03-.15-.06-.36-.22-.46h-.02s-.09-.04-.09-.04h-.05l-.06.05s-.04.06-.02.13l.39,3.49c-.11-.02-.23-.07-.33-.13-.14-.07-.28-.14-.4-.14h-.04l-.12.07ZM39.37,46.24v.22c-.02.41-.04.88.23,1.25.43.58,1.85,1.69,2.48,1.94l.1.03s.09.02.12.04l.14-.13-.15-.25c-.6-.63-1.05-1.35-1.48-2.05l-.11-.18c-.25-.4-.5-.75-1.01-.94l-.12-.02h-.1l-.1.1ZM29.27,44.68l-.03.05.03.1v.5c0,.09.24.68.28.74.33.52,1.92,1.9,2.47,2.31.1.07.2.14.3.21.15.1.31.2.44.32l.34.07.03-.05c.15-.21.02-.34-.05-.41-.26-.33-.49-.59-.72-.84-.35-.39-.71-.79-1-1.25-.61-1-.82-1.19-1.87-1.73l-.02-.07h-.13s-.09.06-.09.06ZM22.28,43.14c-.14.1-.08.25-.05.33.11.83.3,1.36.68,1.91l2.18,2.16.32.04h.08s.02-.07.02-.07c.05-.15-.03-.21-.07-.24-.08-.15-.2-.28-.31-.41-.06-.07-.13-.14-.18-.22-.62-.82-1.03-1.47-1.3-2.36-.1-.32-.5-.71-.74-.86-.08-.05-.18-.1-.28-.16-.08-.04-.16-.08-.23-.12l-.06-.04-.05.04ZM34.55,43.25c-.07.15-.02.25.01.31.18.99.43,1.24,1.02,1.83l.08.08c.49.5,1.06,1.05,1.47,1.37.13.1.28.18.42.26l.26.14v-.17c0-.21-.11-.38-.22-.53l-.21-.27c-.36-.47-.73-.95-1.01-1.44-.08-.14-.14-.26-.2-.37-.21-.41-.35-.7-.89-.98-.15-.08-.51-.27-.64-.27h-.04l-.05.04ZM37.81,42.06c-.07,0-.22.03-.26.26-.02.11.02.53.03.62,0,.04.06.29.07.31.16.45,1.71,1.45,1.73,1.46.16.1.32.18.51.28.16.12.23.16.3.16h.05l.05-.04.03-.03v-.12c-.31-.4-.57-.75-.84-1.12-.06-.09-.15-.21-.24-.35-.32-.46-.76-1.09-1.04-1.28-.11-.07-.25-.16-.38-.16ZM25.61,40.19l-.03.09s0,.09,0,.14c0,.05,0,.09,0,.14,0,.04-.02.12-.04.2-.08.34-.1.49-.09.56v.05s.1.04.1.04c.03.21.06.26.18.4l.1.12c.39.47.89.97,1.49,1.47l.79.5-.88-1.62c-.33-.62-.67-1.26-1.17-1.8-.14-.2-.18-.25-.22-.27h-.02s-.09-.02-.09-.02h-.12ZM30.94,39.93c-.12.49-.14.9-.06,1.25.08.33.3.58.51.82.07.08.13.15.2.23l.22.28c.26.33.52.67.82.97.18.19.34.36.55.36h.07s.08-.09.08-.09c.02-.16-.03-.3-.08-.42-.04-.1-.12-.2-.19-.3-.05-.06-.1-.13-.13-.18-.32-.56-.67-1.19-.83-1.78-.09-.33-.37-.73-.68-.98-.05-.04-.1-.07-.16-.1-.06-.03-.11-.07-.16-.11l-.12-.1-.04.15ZM20.36,39.04s-.2.23-.21.25c-.07.12-.21.45-.22.61-.04.33.03.48.12.67.03.06.05.12.08.19l.15.39c.2.53.41,1.08.7,1.58.09.16.21.23.35.23l.1-.02.05-.1s0-.09,0-.14c0-.07.01-.15,0-.21,0-.02,0-.03-.08-.15l-.06-.11c-.05-.19-.17-.67-.19-.9-.02-.2-.01-.4,0-.6.01-.33.02-.66-.08-1-.06-.2-.19-.34-.31-.47-.06-.07-.13-.14-.18-.22l-.03-.04h-.13s-.05.05-.05.05ZM17.71,38.02c-.12,0-.16.14-.18.21-.37,1.09.05,2.52.95,3.25l.31.17.05-.06c.05-.06,0-.25-.05-.4-.1-.32-.18-.67-.26-1.03-.13-.63-.27-1.28-.58-1.8-.05-.08-.09-.17-.13-.26l-.03-.06h-.09ZM33.89,38.25v.96c0,.21.93,1.13.94,1.14.22.21.49.43.72.62.46.37.61.48.67.5l.11.03h.05s.06-.07.06-.07c.06-.16-.02-.25-.06-.29-.13-.34-.36-.63-.58-.91-.14-.18-.29-.37-.4-.56-.07-.12-.13-.27-.19-.41-.08-.19-.16-.38-.26-.53-.15-.22-.63-.48-.88-.54h-.04s-.15.07-.15.07ZM28.02,37.61c-.18,0-.23.14-.28.27-.07.17-.12.3-.13.39-.07.58.23.89.55,1.22.08.08.16.17.23.26.09.11.18.22.27.33.12.16.25.32.38.46.17.19.73.81.83.86.05.02.31.09.39.09l.11-.07v-.04s0-.09,0-.09l-.02-.04-.07-.03c-.02-.11-.12-.27-.22-.43l-.12-.2c-.29-.5-.63-1.08-.82-1.57-.05-.12-.08-.24-.11-.35-.08-.29-.15-.58-.44-.82-.06-.05-.31-.2-.36-.22-.07-.03-.13-.04-.18-.04ZM22.83,35.81c-.1.15-.14.24-.18.32-.08.16-.17.33-.19.54-.07.66.14.99.4,1.42l.11.18.19.34c.13.22.25.45.39.66.06.09.43.57.55.65h.02s.09.04.09.04l.1-.03c.06-.06.06-.11-.09-.61l-.04-.14c-.04-.19-.08-.39-.12-.58-.05-.24-.1-.49-.16-.73l-.05-.21c-.13-.58-.33-1.45-.69-1.72-.1-.08-.16-.14-.26-.14h-.07ZM45.16,37.6l-.03.03v.13c-.08.31-.12.48,0,.78l.02.06h.06c-.01.06.02.14.11.14.23-.16.19-.7.19-.71-.01-.09-.05-.16-.08-.22-.03-.05-.06-.1-.05-.14v-.09s-.08-.02-.08-.02h-.09s-.06.04-.06.04ZM19.58,34.24c-.11,0-.16.1-.2.17l-.13.17c-.12.12-.26.26-.3.43-.04.18-.03.98-.01,1.19.08.71.37,1.35.63,1.91,0,.17.09.19.13.19.11-.02.13-.03.2-.47.02-.14.03-.3.04-.46,0-.12.02-.23.03-.34l.04-.3c.08-.62.2-1.47,0-1.99-.03-.09-.21-.36-.28-.43l-.03-.03-.12-.04ZM25.54,34.01c-.23,0-.22.21-.22.28-.03.12-.06.19-.08.26-.01.05-.05.14-.08.21-.02.05-.04.09-.04.11-.06.24.02.58.08.74.18.52.45.99.72,1.45l.11.2.62.84.21.07c.18-.12.14-.34-.1-1.14-.04-.12-.07-.22-.08-.27-.05-.2-.08-.42-.11-.64-.06-.43-.12-.88-.31-1.26-.05-.11-.17-.26-.25-.36-.05-.06-.1-.12-.16-.18-.08-.08-.17-.17-.22-.25l-.03-.05h-.06ZM28.41,34.08c-.06.09-.07.97-.07.98.03.41.39.87.62,1.18.39.51.82.95,1.27,1.39l.48.37v-.21c-.01-.19-.09-.36-.16-.51-.12-.27-.22-.46-.32-.65-.21-.41-.39-.76-.49-1.25-.01-.06-.02-.12-.03-.18-.02-.14-.05-.29-.13-.44-.08-.15-.28-.34-.4-.43-.07-.05-.43-.29-.54-.32h-.08s-.05-.01-.05-.01l-.1.08ZM16.74,34.06c-.02.17-.09.34-.17.51-.04.09-.08.17-.11.26-.06.17-.09.3-.13.46l-.02.1c-.1.21-.1.85-.06,1.01v.05s.09.04.09.04c.07.35.15.54.35.9.1.12.12.16.12.2l-.03.22.18-.12c.18-.12.18-.3.17-.45,0-.05,0-.09,0-.14.14-1.04.12-1.85-.07-2.7-.02-.18-.03-.33-.18-.41l-.13-.07v.15ZM44.13,36.74c-.11.16-.14.4-.07.58.06.14.17.24.32.28l.12.03v-.12c0-.29.01-.5-.14-.68l-.08-.1-.14.02ZM31.01,34.09v.06c-.11.49-.17,1.05.12,1.49.15.23,1.32,1.37,1.57,1.58.12.1.29.25.46.25h.03l.12-.05c.07-.05.08-.1.08-.14,0-.09-.07-.14-.12-.18-.28-.39-.51-.77-.74-1.15-.18-.3-.36-.6-.55-.89-.09-.14-.54-.82-.73-.94-.05-.03-.09-.06-.15-.06h-.01l-.09.02ZM43.14,35.53c-.06,0-.21.03-.25.29-.02.15,0,.56.17.61l.11.02c.09,0,.16-.04.2-.1.15-.23-.08-.74-.08-.74l-.03-.06h-.12ZM23.82,31.86c-.14.11-.53.54-.62.68l-.04.1-.03.03-.04.12c0,.34,0,.71.09,1.11.08.35.24.73.44,1.07.04.07.1.17.11.22v.07s.08.01.08.01h.04l.13-.05c.09-.08.1-.27.08-.67,0-.09,0-.17,0-.21.03-.44.09-.94.14-1.39,0-.08.03-.15.04-.22.05-.21.09-.43-.05-.68v-.02s-.09-.08-.09-.08v-.07s-.11-.06-.11-.06h-.06s-.05-.01-.05-.01l-.05.05ZM16.76,31.56c-.15.06-.31.15-.45.26-.11.09-.34.34-.39.48-.16.43-.34,1.43-.37,1.85,0,.12,0,.23,0,.35,0,.21.02.42-.06.6l-.04.09.09.04c.06.03.12.04.17.04.25,0,.27-.28.29-.46,0-.06,0-.13.02-.18.16-.73.46-1.31.74-1.79.06-.11.12-.21.17-.32.1-.16.1-.71-.01-.88l-.03-.04-.09-.04h-.02s-.02,0-.02,0ZM41.8,33.87c-.2,0-.22.22-.23.33-.03.33,0,.56.11.72l.04.06.13-.03.08-.08c.05-.23.1-.48.07-.73v-.04s-.06-.07-.06-.07l.04-.11-.12-.05h-.05ZM22.02,31.11c-.14,0-.65.45-.66.45-.06.06-.26.36-.27.45-.05.41.14,1.27.21,1.53.06.23.15.46.23.69.07.19.14.37.2.56l.04.13.11-.07c.1-.06.17-.22.18-.32.04-.32.02-.68,0-1.03-.02-.21-.03-.42-.03-.61,0-.2.04-.39.09-.58.06-.25.12-.52.08-.83,0-.06-.03-.1-.04-.14-.02-.05-.03-.08-.03-.12l.02-.11h-.12ZM43.02,33.92c-.1.11-.06.51-.06.52,0,0,.1.47.28.47l.11-.07c.13-.32.11-.61-.07-.81-.05-.07-.07-.1-.11-.13l-.03-.02h-.08l-.05.04ZM20.31,30.4c-.22,0-.81.34-.92.48-.2.26-.32.65-.38.94-.08.36-.13,1.13-.08,1.52,0,.05.03.11.05.17.03.07.05.14.05.2v.08s.08.01.08.01h.08l.08-.14c.13-.38.29-.73.45-1.08.27-.6.55-1.22.67-1.9.04-.06.07-.11.06-.19v-.08s-.15-.02-.15-.02ZM30.45,32.88l-.02.17c0,.19-.02.48.24.56l.14.04-.05-1.27-.3.5ZM27.92,32.39c-.06.06-.05.17-.05.27,0,.12-.02.17-.05.23-.08.22-.13.37-.05.45l.29.13.04-.07c.16-.23.11-.48.07-.7-.02-.09-.03-.17-.03-.25v-.08s-.11-.02-.11-.02h-.04l-.06.05ZM41.74,32.36c-.18.43,0,.69.17.85l.05.05.06-.03c.06-.03.1-.1.12-.24.02-.16.01-.52-.12-.62-.05-.04-.11-.04-.15-.05h-.02s-.1.03-.1.03ZM40.24,32.4c-.08.16-.13.35-.05.47.03.05.09.1.22.1h.11l.02-.11s0-.06.01-.1c.02-.1.03-.22-.04-.31-.04-.05-.14-.08-.19-.08h-.04l-.04.03ZM36.47,31.11c-.11,0-.15.14-.16.17-.03.22-.02.54,0,.82,0,.13,0,.46,0,.46l.16.05h.09v-.09c.04-.28.03-.56.02-.84,0-.15-.01-.31-.01-.47v-.07s-.07-.02-.07-.02h-.04ZM22.8,31.49c-.05.09-.26.85-.16.98l.04.05.06-.02c.19-.04.22-.12.26-.23,0,0,.06-.03.08-.1.04-.16.03-.31.01-.46,0-.09-.01-.18,0-.27v-.25s-.29.28-.29.28ZM42.5,31.52c-.06.24-.09.41,0,.69l.02.07h.2c.21-.26.16-.54-.05-.8l-.13-.15-.05.19ZM43.17,31.19v.1c-.01.21-.02.32.03.45.02.05.28.49.47.49h.04l.05-.04c0-.17,0-.24-.02-.31-.03-.15-.05-.3-.16-.47,0,0-.15-.18-.19-.2h-.02s-.08-.02-.08-.02h-.12ZM16.56,20.91c-.06,0-.39,0-.53.12-.17.14-.22.68-.27,1.32-.01.13-.02.25-.03.32-.08.65-.18,1.25-.29,1.86l-.11.66c-.29,1.77-.51,3.64-.7,5.26-.03.24-.02.5,0,.77.01.23.02.47,0,.68v.11s.3,0,.3,0l.72-2.21v-.22s.2.09.2.09l-.07-.21c1.09-1.85,2.19-3.04,3.43-3.72l.55-.48h0s.06-.06.06-.06c.03-.03.07-.04.12-.05l.1-.03c.81-.32,1.5-.54,2.1-.67.32-.07,1.15-.23,1.97-.23.35,0,.65.03.89.09.54.14,1,.51,1.44.86.19.15.38.31.58.44.18.13.19.13.2.14.07.03.14.04.22.04.17,0,.36-.07.52-.19.23-.18.38-.43.52-.67.16-.27.3-.52.56-.68.26-.16.78-.35,1.1-.42.23-.05.47-.07.73-.07.75,0,1.5.21,2.13.41.51.16,1.21.39,1.65.69.16.11.32.26.49.41.26.24.52.48.8.6.16.07.25.07.38.08h.1c.08.03.11.04.15.04h.08s.02-.08.02-.08c.04-.18-.09-.23-.15-.25-.42-.28-.76-.61-1.08-.93l-.25-.25s-.06-.05-.1-.08c0,0-.01,0-.02-.01.02,0,.05.02.09.03.16.06.31.12.45.17.29.12.6.24.9.31.22.05.71.11,1.11.11.18,0,.32-.01.42-.04h.05s.04-.1.04-.1c.29-.04.42-.09.75-.25.11-.08.13-.11.16-.11.05-.01.1-.02.14-.02.13,0,.16.05.23.23.02.05.04.11.07.17.28.57.52,1.1.7,1.55l.03.07s-.05.02-.07.03c-.08.03-.11.03-.15.03-.22,0-.54-.08-.8-.14-.11-.03-.22-.05-.3-.07h-.25s-.02-.06-.02-.06h-.06s-.08-.02-.14-.02c-.17,0-.28.05-.32.14l-.06.14h.21s.03,0,.03,0c.56.26,1.25.44,2.15.56h.22s.11,0,.11,0h.05s.09-.03.09-.03c.06-.06.06-.12-.13-.6-.16-.4-.28-.76-.42-1.17l-.18-.52c-.22-.62-.45-1.27-.57-1.84-.03-.13-.04-.27-.05-.41,0-.09-.01-.19-.02-.28l-.04-.12s-.03-.07-.03-.1l.03-.12h-.07s.02-.02.02-.03c-.11-.5-.27-1.05-.34-1.6-.19-1.42-.27-3.7-.07-5.15,0-.03.02-.07.03-.11.03-.1.07-.22.03-.35l-.05-.15-.12.1c-.07.06-.12.11-.14.15-.22.32-.61,1.38-.65,1.73-.03.36.05.55.32.74-.03.01-.06.03-.09.04-.11.05-.24.11-.33.11-.09-.05-.21-.33-.23-.43-.01-.03-.01-.08-.02-.12-.02-.14-.04-.38-.3-.38l-.14.03c-.11.09-.23.17-.35.24-.08.05-.15.09-.23.15-.03.02-.13.1-.13.18v.05l.08.06h.08s.06.06.12.07h.11s.16,0,.16,0c.1,0,.16.01.21.05l-.67.38s-.01,0-.02,0c-.03,0-.08.02-.14.04-.05.02-.11.04-.14.04-.01-.02-.01-.15-.01-.22,0-.07,0-.13-.01-.18-.05-.23-.26-.49-.45-.72-.1-.12-.19-.22-.24-.32-.01-.02-.03-.06-.04-.09-.02-.05-.03-.11-.07-.15,0-.02.01-.03.02-.05.05-.08.13-.11.2-.14.04-.02.08-.03.11-.05.29-.16.57-.25.87-.36.22-.07.44-.15.67-.25.06-.03.11-.06.17-.09.1-.05.19-.1.28-.12l.12-.03-.06-.11c-.04-.08-.11-.12-.19-.12-.06,0-.12.02-.17.04-1.27.17-2.53.44-3.45.74-.54.18-.56.21-.57.23l-.03.04v.11c.03.08.11.11.17.13.5.34,1.1.89,1.3,1.37.28.64.26,1.36-.06,1.98-.31.6-.86,1.03-1.52,1.18-.19.04-.38.06-.57.06-1.19,0-2.25-.8-2.52-1.89-.14-.56-.07-1.16.21-1.67.02-.03.07-.1.13-.18.25-.34.29-.41.27-.49-.02-.07-.08-.13-.39-.13-.04,0-.12,0-.17.01h-.05s-.04.1-.04.1c-.35.12-.43.32-.55.66-.01.02-.07.04-.08.1-.15.65-.06,1.39.06,2.1-.33-.39-.49-.85-.65-1.3-.07-.19-.13-.37-.2-.54-.04-.09-.09-.18-.13-.27l-.08-.15h-.08c-.13,0-.19.15-.25.32-.02.04-.04.09-.04.11-.04-.02-.09-.06-.13-.09l-.1-.06c-.17-.06-.51-.15-.73-.15-.14.01-.19.05-.21.11l-.14-.03c-.06.02-.18.08-.29.14-.08.04-.18.1-.21.11v-.16s-.01-.05-.01-.05l-.08-.04c0-.13-.08-.16-.15-.16-.03,0-.08,0-.13.02-.12.03-.35.68-.35.68-.07.21-.11.42-.15.63-.07.35-.14.69-.33.99l-.03.03v-1.65c0-.06-.17-.45-.18-.48-.03-.04-.21-.21-.33-.21h-.04l-.05.04c-.02.26.01.44.04.63.05.29.1.58.06.87-.15,1.29-1.72,2.26-3.02,2.26-.16,0-.31-.01-.46-.04-.93-.19-1.62-.85-1.84-1.76-.22-.94.11-1.89.87-2.49.03-.02.06-.04.1-.06.12-.07.3-.16.18-.46l-5.02-1.93.15.48c.09.27.18.56.21.84.28,1.17.23,2.46.13,3.68,0,.08,0,.16,0,.24,0,.06,0,.12,0,.18v.08s.08.02.08.02h.07l.12-.09c.04-.07.08-.16.12-.25.09-.2.2-.44.33-.44.09.04.16.21.17.26.01.09.02.16.02.22,0,.15.02.28.12.48,0,.05,0,.16.17.21h.02c.19,0,.48-.1.54-.12h.03s.05-.07.05-.07c.16-.05.28-.1.38-.1.06,0,.1.01.14.05,0,0,.07.1.08.13.01.14-.08.19-.32.28l-.2.07c-.13.05-.18.06-.22.07-.11.03-.22.05-.28.15-.04.07-.04.17,0,.29.06.17.2.28.37.28.18-.02.31-.11.47-.21.17-.11.37-.25.52-.25.04,0,.08.01.11.03.04.18-.24.38-.41.5-.12.08-.22.15-.26.21l-.2.32.1.05c.07.03.13.09.2.15.13.11.27.23.46.23.16-.02.21-.11.42-.47.08-.13.19-.33.22-.37h.02c.12,0,.17.02.19.05.02.16-.05.29-.11.42-.11.22-.21.44-.11.59.06.09.16.13.32.13.08,0,.18-.01.31-.04h.07s.11-.87.11-.87c0,0,0,0,0,0,.02,0,.06-.02.13-.02.08,0,.13.02.14.03,0,.05,0,.31,0,.38,0,0,0,0,0,0-.02,0-.06.03-.06.1,0,0-.03.43.09.51.13.03.24.05.34.05.09,0,.17-.01.24-.03.18-.05.17-.3.16-.53,0-.13-.01-.32.03-.36.1.04.13.06.17.06h.1c.2,0,.38-.09.55-.18.12-.07.24-.13.35-.15h.03c.32,0,.58.13.72.32.14.18.2.34.22.5,0,0-.01,0-.02,0-.02,0-.04.05-.05.09-.04.07-.19.15-.23.16-.04,0-.12-.1-.16-.16-.05-.06-.08-.11-.13-.12l-.1-.02c-.09,0-.18.04-.26.13-.15.16-.24.45-.22.62.01.13.03.36.24.36.05,0,.11-.01.18-.04.76-.28,1.81-1.12,2.27-1.7.67-.84.86-1.54,1.09-2.59.15-.71.68-1.15,1.38-1.15.17,0,.35.03.53.08.22.07.41.23.51.44.16.34.24.76.31,1.17.03.2.07.39.11.57.41,1.72,2.44,3.03,4.08,3.26.28.04.59.06.92.06.7,0,3.03-.13,3.86-1.75.05-.06.1-.13.08-.23h.05l.09-.08c.07-.08.19-.29.23-.38.05-.1.08-.21.11-.32l.06-.17s.02.02.03.03c.09.09.13.42.15.62,0,.09.02.17.03.23.02.08.11.33.16.4.06.09.25.26.43.29-.01.01-.02.02-.03.03l-.12.05c-.08,0-.15-.04-.24-.08l-.1-.05c-.07-.06-.11-.08-.15-.08-.04-.01-.08-.02-.11-.04l-.06-.04-.06.05c-.11.1-.16.28-.15.56,0,.15.04.29.12.46l.16.25c-.11-.02-.27-.09-.46-.19,0-.03-.05-.09-.13-.11-.05-.02-.1-.02-.14-.02-.1,0-.18.03-.24.09-.04.04-.08.11-.08.22,0,.09.07.25.15.43l.05.08s-.05-.03-.09-.05c-.09-.04-.19-.09-.31-.09h-.11c-.06.03-.26.24-.28.27v.02s-.02.05-.02.05c-.04,0-.06-.02-.09-.03l-.11-.04c-.06-.01-.12-.03-.19-.04-.06-.01-.12-.02-.17-.03-.04,0-.07-.02-.11-.04-.08-.03-.16-.06-.26-.07l-.17-.02.2.42c.07.06.08.06.07.15l-.04.05-1.22-.43c-.53-.03-1.09-.12-1.68-.22-.76-.13-1.55-.26-2.3-.26-1.25,0-2.11.37-2.71,1.15-.11.14-.19.31-.27.47-.06.12-.12.24-.19.35-.03.02-.09.05-.15.05-.09,0-.19-.04-.32-.13-.22-.15-.42-.33-.61-.5-.4-.35-.82-.71-1.36-.86-.39-.11-.8-.16-1.24-.16-.75,0-1.49.15-2.2.3-.22.05-.44.09-.66.13-.18.03-.37.06-.57.09-.39.06-.8.11-1.13.22-.09.03-.39.16-.47.21-.03.02-.32.32-.35.35-.03.05-.05.1-.04.17l.02.07s.08,0,.09,0c.14,0,.24-.01.33-.04.04-.01.11-.05.23-.12.08-.05.22-.13.26-.14h.27c-.06.04-.1.1-.09.17h-.06c-.06,0-.12,0-.15.01-.49.11-2.01,1.15-2.44,1.51-.05.04-.11.11-.17.18-.05.07-.12.14-.16.17,0,0,0,0-.01,0-.04,0-.1,0-.14.07-.1.01-.2.01-.29.01-.16,0-.32,0-.48-.02l-.27-.02h0s.11-.09.11-.09c.12-.55.19-1.04.27-1.6.02-.16.04-.21.05-.22.14.05.35.1.55.15.38.1.78.19,1.18.19.09,0,.18,0,.27-.02.06,0,.13-.03.2-.05.07-.02.15-.05.21-.05h.14s-.05-.14-.05-.14c0-.02-.02-.06-.03-.11-.04-.16-.08-.33-.2-.35-.03,0-.12-.01-.21-.01-.09,0-.15,0-.18.01-.03,0-.04.02-.13.08l-.1.05h-.12s.03-.11.02-.16c0-.08-.02-.12-.03-.15-.04-.11-.12-.17-.24-.17-.15,0-.33.1-.47.19-.06.03-.13.08-.16.08h-.17s.04-.09.09-.15c.04-.04.08-.09.1-.15.04-.13.05-.2.01-.26l-.03-.04-.1-.02c-.06-.02-.28-.12-.3-.14-.03-.03-.06-.07-.09-.09l.09-.11c.08-.18.12-.48.16-.72l.02-.11s0-.1,0-.16c0,0,0,0,0-.01.43.65.88.99,1.51,1.15.08.02.15.03.21.04.04,0,.08.01.13.02l.02.06h.06c.19.04.39.05.6.05.88,0,1.81-.21,2.62-.39.1-.02.18-.03.25-.04.11-.01.23-.03.32-.06h.03s.09-.11.09-.11l.16.02-.07-.16c-.11-.27-.2-.48-.49-.48-.06,0-.13,0-.21.03-.24.06-.32.24-.39.36-.05.09-.07.13-.1.13-.05-.01-.12-.08-.2-.15-.09-.09-.2-.2-.34-.21l-.02-.04s-.03,0-.04,0c-.18,0-.34.12-.54.33-.02.02-.06.08-.11.14-.04.06-.08.11-.1.13,0-.02-.01-.28-.02-.38,0-.09,0-.17-.02-.23-.04-.14-.31-.18-.36-.18-.24,0-.38.24-.5.44-.08.15-.17.3-.26.3-.07-.11-.03-.26.02-.44.05-.18.1-.37,0-.58l-.03-.05h-.1c-.21,0-.4.17-.59.35-.15.14-.31.29-.43.29,0,0-.1-.11-.12-.13.02-.06.08-.15.15-.25.09-.13.19-.28.16-.48-.04-.21-.22-.33-.49-.33-.08,0-.16.01-.24.03-.09.03-.12.05-.2.06-.11.04-.15.05-.18.05-.02-.1.14-.2.23-.25.1-.06.18-.1.21-.16.07-.1.09-.22.06-.33-.03-.11-.11-.21-.21-.26-.1-.05-.25-.05-.33-.05ZM17.19,28.75c-.11,0-.21.04-.29.13-.42.44-.75,1.03-.93,1.65-.1.35-.22.78-.23,1.1,0,.06,0,.16.09.23l.09.07.24-.44.21-.36c.23-.4.47-.82.74-1.21.02-.02.05-.06.09-.11.11-.14.17-.21.18-.26.06-.2.02-.37-.01-.53-.01-.06-.04-.25-.04-.25h-.14ZM31.73,28.46s-.06.09.05.34c.1.24.25.48.4.72.12.19.23.38.33.57.11.22.18.46.24.69.07.25.14.51.27.73.02.04.11.15.15.18l.18.18-.02-.26s0-.09,0-.14c0-.07,0-.14,0-.21-.03-.23-.11-.5-.19-.74l-.08-.27c-.13-.48-.37-1.17-.89-1.6-.03-.03-.08-.05-.11-.06-.07-.03-.09-.05-.09-.08v-.08s-.13-.02-.13-.02h-.05l-.04.05ZM27.74,31.15v.6h.2l.07-.1v-.6h-.2l-.07.1ZM40.21,30.43v.09c0,.05-.02.1-.03.15-.02.08-.05.17-.04.28v.06s.1.07.1.07c-.04,0-.04.05-.02.1.02.06.29.25.31.26l.24.11-.11-.24.03-.02.04-.07c.04-.18,0-.36-.13-.57-.06-.12-.12-.23-.27-.23h-.12ZM30.34,30.68c-.07,0-.13.03-.18.09l-.07.08.66.52c.08.09.13.16.23.16l.07-.02.08-.09v-.71l-.04-.1.02-.1h-.02c.04-.11.04-.2.03-.31-.01-.2-.1-.24-.16-.24h-.09l-.03.21c-.01.1-.03.19-.02.3h-.05s.02.13.02.13c.02.1,0,.2-.03.23h-.11s-.05-.02-.08-.05c-.06-.05-.14-.11-.23-.11ZM38.87,30.36c-.09,0-.25.07-.3.13-.05.08-.04.31-.03.36v.05s.1.04.1.04c-.02.09,0,.2.09.28.06.05.13.07.19.09l.09.04.12-.06c.08-.15.04-.52-.04-.73-.04-.11-.09-.17-.16-.19h-.06ZM21.24,30.29l-.05.05c-.01.14-.03.17-.07.24-.03.06-.07.12-.08.2,0,.06,0,.13,0,.2,0,.04,0,.09,0,.13v.15s.13-.04.13-.04c.33-.11.45-.3.4-.66v-.03s-.06-.07-.06-.07l.02-.08-.09-.06-.07-.03-.13.02ZM24.62,30.78c0,.14.02.29.15.31l.11.02v-.58l-.2-.02-.07.28ZM41.1,30.13c-.08.31.09.6.4.72l.15.05-.02-.16s0-.09,0-.14c0-.07,0-.14,0-.21-.08-.1-.13-.15-.14-.18l-.25-.15-.11-.04-.03.11ZM27.04,28.66v.08c0,.06,0,.1,0,.13-.07.28-.18.82-.2,1.09,0,.09.02.17.04.25.02.08.04.15.03.22l-.02.12h.36s0-.11,0-.11c0-.13.19-.29.34-.32.02,0,.03,0,.05,0,.09,0,.15.01.21.03.08.02.16.04.25.04h.1s.09-.03.09-.03v-.09c0-.09-.08-.14-.13-.18-.08-.12-.17-.3-.23-.45l-.06-.13-.61-.71-.2.05ZM28.46,28.72l-.03.17c0,.05,0,.11,0,.16v.05s.1.04.1.04c-.02.03,0,.13.01.23.04.24.08.51.17.68l.1.12.09.36.1-.36c.05-.16.14-.22.33-.22.12,0,.26.03.39.06.08.02.15.03.22.04l.23.03-.14-.19c-.1-.14-.24-.29-.36-.4-.25-.22-.66-.53-.91-.71,0,0-.16-.1-.24-.1h-.05l-.04.04ZM42.11,29.75s-.09.13-.03.29c.06.14.23.4.38.4h.04l.06-.04c.04-.2.03-.38-.08-.49-.02-.02-.24-.17-.31-.18h-.04s-.03.03-.03.03ZM19.8,29.49s-.15.06-.17.09c-.05.05-.19.51-.19.56v.03s.05.09.05.09l-.02.09.12.06h.07l.11-.09c.16-.2.29-.36.2-.63v-.04s-.09-.07-.09-.07v-.11s-.08,0-.08,0ZM25.39,29.76c.12,0,.22.05.29.09.01,0,.04.04.07.07.1.11.2.22.32.22l.11-.04c.1-.1.1-.22.09-.32,0-.04,0-.07,0-.1.02-.14.05-.28.09-.42.04-.2.09-.39.11-.59,0-.06,0-.13,0-.19,0-.04,0-.09,0-.13v-.19s-.35.21-.35.21c-.36.28-.8.66-1.02,1.18-.1.04-.08.16-.06.22l.02.06h.18s.05-.11.05-.11c0,.02.01.02.04.02.01,0,.03,0,.04,0ZM22.58,29.42c-.07.09-.01.24.03.33l.03.06.09.04h.63v-.2l-.1-.07h-.47l-.05-.15-.08-.11-.08.11ZM36.68,28.79v.08c-.01.32.19.52.38.69h.21s.12-.05.12-.05l-.07-.11s-.04-.1-.05-.17c-.02-.1-.04-.22-.15-.32-.05-.04-.11-.06-.15-.07v-.13s-.29.08-.29.08ZM24.63,28.27c-.08.07-.15.12-.22.16-.17.11-.41.27-.32.51,0,0,.24.51.3.56.03,0,.05,0,.07,0,.1,0,.15-.05.19-.1.01-.02.77-1.05.57-1.25l-.04-.04-.54.16ZM18.22,28.46l-.08.15c-.11.19-.23.4-.23.6,0,.08,0,.16.1.23,0,0,.01,0,.02,0,.19,0,.43-.27.45-.38.02-.08.01-.19,0-.29,0-.08-.01-.16,0-.22v-.07s-.14-.08-.14-.08l-.11.05ZM39.43,28.44v.1s.01.08.01.12c0,.07,0,.13,0,.2.01.05.21.35.22.37.06.08.15.13.25.16l.19.05-.07-.18c-.03-.07-.03-.17-.04-.26,0-.07,0-.14-.02-.2v-.05s-.1-.04-.1-.04c.02-.06,0-.11-.08-.17-.07-.05-.13-.1-.22-.1h0l-.13.02ZM38.43,28.49c-.14.12-.01.43.03.52.1.23.22.35.35.35l.05-.02.09-.07c.04-.28-.06-.54-.25-.68-.07-.05-.13-.1-.22-.1h-.04ZM21.48,28.55c-.09,0-.15.05-.19.09l-.04.04v.09s.1.31.1.31l.28-.02v-.5s-.07-.02-.07-.02h-.07ZM21.79,28.86v.23h.18l.05-.08.06-.26h-.23l-.07.1ZM22.82,28.35c.21,0,.25.12.29.42.01.08.03.16.05.24v.06s.07.01.07.01h.07l.11-.09.2-.23c.29-.32.65-.73.76-.99.03-.05.06-.1.04-.18l-.02-.07s-.08,0-.08,0c-.68,0-1.2.29-1.64.55l-.04.03-.02.27.2-.02ZM41,28.26c-.08,0-.14.03-.18.09l-.04.06.04.05c.15.22.33.43.64.43h.09s.09-.1.09-.1c0-.13-.1-.2-.17-.25v-.02s-.14-.13-.14-.13c-.02-.01-.18-.13-.33-.13ZM34.8,27.77l-.03.04.02.09c.02.07.14.34.17.41.03.06.16.25.21.31.07.09.13.14.19.14l.02-.02.09-.07c0-.05.02-.1.03-.15.03-.12.06-.25.04-.39v-.05s-.09-.07-.09-.07c0-.06,0-.11-.1-.18-.1-.07-.22-.1-.34-.1h-.16s-.05.05-.05.05ZM19.07,28.34c-.1,0-.2.1-.23.13l-.03.03-.04.11c0,.08.1.14.18.14l.04-.03.08-.08s.14-.04.15-.13v-.05s-.05-.09-.05-.09l-.03-.03h-.07ZM31.05,27.75l-.11.06.09.09c.41.47.55.55.65.55l.06-.04.06-.1c-.1-.27-.2-.43-.32-.5-.09-.05-.18-.1-.28-.1h-.02l-.11.03ZM35.94,27.13l-.03.03v.09c.06.11.09.18.12.25.05.12.09.24.19.36.1.13.32.29.34.3l.14.1.02-.17c.04-.3.08-.6-.07-.77-.09-.1-.44-.23-.57-.24h-.08s-.05.04-.05.04ZM23.36,27.01c-.09,0-.16.03-.22.05l-.15.04c-.44.08-.89.17-1.31.34-.02,0-.19.08-.24.16l-.08.13.15.02c.06,0,.12.05.16.08.07.06.11.11.15.15.05.06.1.13.23.13h0c.07,0,.16-.02.31-.08.02,0,.16-.07.2-.08.4-.18.75-.46.97-.78l.08-.11-.14-.05h-.11ZM37.17,27.07l-.03.04v.09c.03.09.36.68.39.73l.22.18.15-.12s0-.05.03-.1l.02-.02.03-.07c.01-.09.02-.58-.2-.68-.1-.04-.3-.09-.43-.09h-.13s-.05.04-.05.04ZM27.54,27.26l-.03.04.02.12v.1c-.02.08-.04.16,0,.29.04.14.14.22.27.22h0c.15,0,.32-.13.34-.25.03-.25-.11-.37-.26-.46-.08-.05-.12-.08-.16-.1h-.06s-.05-.01-.05-.01l-.08.06ZM26.98,27.18l-.11.1c-.13.14-.26.28-.15.57l.02.05.14.03c.07.02.13.03.19.03.07,0,.13-.02.17-.07.05-.06.08-.14.07-.27,0-.07-.08-.39-.2-.46l-.04-.02-.11.03ZM28.16,27.07c-.04.07,0,.14.04.21.04.07.05.12.07.16.02.06.05.13.08.19.08.15.18.3.35.3.09,0,.17-.04.26-.08.06-.03.13-.06.21-.09l.08-.03v-.09c-.02-.09-.25-.3-.27-.31-.12-.08-.28-.15-.42-.21l-.18-.08-.12-.03h-.06l-.05.06ZM28.95,26.7l-.03.05.03.06,1.98.99.02-.13c.02-.1-.03-.17-.07-.22-.16-.23-.63-.61-.84-.71-.04-.02-.33-.14-.39-.14-.05,0-.12-.01-.19-.01h-.45s-.08.12-.08.12ZM26.35,27.02c-.12,0-.21.05-.28.09-.05.03-.11.06-.17.07l-.29.26-.07.07.07.07c.12.11.27.18.41.18.05,0,.1,0,.15-.02.16-.05.17-.16.17-.21.02-.01.07-.04.1-.11.02-.06.03-.1.03-.14,0,0,0,0,0,0,0,0,.04-.01.07-.06l.02-.04-.02-.09c-.11-.08-.15-.08-.19-.08ZM25.47,26.81c-.09,0-.15.05-.18.08-.2.07-.39.12-.45.24l-.02.04.02.12s.16.22.2.25c0,0,.01,0,.02,0,.18,0,.43-.19.46-.23.03-.03.22-.33.1-.45l-.03-.03-.12-.02ZM19.89,26.6l-.04.14.07.04c.24.13.25.26.15.56l-.03.1.14.03h.12s1.97-.93,1.97-.93v-.07c-.02-.06-.05-.13-.17-.15-.13-.02-.28-.03-.44-.03-.51,0-1.17.09-1.57.22h-.08s-.11.08-.11.08ZM33.65,26.36l-.04.04v.08c.03.11.29.73.43.79.07.03.23.03.25.03.11,0,.14-.01.17-.03.15-.16.12-.24.08-.33l-.04-.12c-.02-.1-.04-.2-.16-.31-.07-.06-.13-.08-.19-.1h0s-.03-.05-.08-.06c-.04-.02-.09-.02-.14-.02h-.17s-.05,0-.05,0l-.07.03ZM24.89,26.4c-.18.02-.67.15-.84.22-.06.02-.22.09-.19.3v.03s.06.07.06.07c.06.08.13.16.26.16.04,0,.08,0,.14-.02h.05s.04-.1.04-.1l.09-.02c.21-.08.44-.18.64-.31.13-.09.19-.17.17-.26l-.02-.08h-.08s-.23,0-.23,0h-.09ZM31.78,25.88l-.03.04.02.13c.03.11.37.53.46.58.05.04.11.06.17.09.07.03.13.06.18.1l.11.09.09-.17c.06-.18-.16-.64-.28-.72-.15-.11-.37-.19-.59-.2h-.07s-.07.05-.07.05ZM23.98,26.1c-.28,0-.49.08-.64.23-.04.04-.1.09-.08.19l.02.08h.65v-.12s.08.02.08.02c.06-.01.23-.05.23-.05l.04-.08s.03.01.06.01c.04,0,.1-.02.14-.08l.07-.12-.14-.03c-.16-.03-.3-.05-.43-.05ZM23.22,25.62c-.21,0-.64.08-.72.27l-.06.14h.66s.09-.03.18-.08c.04-.02.12-.07.14-.07h.14s-.06-.14-.06-.14c-.03-.08-.13-.12-.29-.12ZM33.13,24.93c.1.37.56.45.7.47h.08s.05-.08.05-.08c.05-.13-.15-.4-.18-.42-.11-.09-.26-.1-.39-.1h-.29s.03.13.03.13ZM22.58,24.73c-.3,0-.53.12-.64.32l-.06.12.14.02s.08,0,.12,0h0c.15,0,.29-.04.43-.08.08-.02.17-.05.25-.06l.13-.15.06-.11-.12-.03c-.1-.03-.2-.04-.31-.04ZM31.39,24.93c.06.02.14.05.2.07.1.05.15.08.22.08l.15-.04-.02-.13-.21-.25c-.07-.08-.19-.13-.32-.13h-.11s-.09.09-.09.09l-.14-.06v.36s.08.01.08.01h.2s.04,0,.04,0ZM28.59,21.06c-.06,0-.11.01-.16.04-.08.24-.14.41-.2.58-.05.15-.11.31-.14.46l-.07.29c-.02.09-.01.21,0,.33,0,.09.01.19,0,.26l-.05.35.35-.41.45-.87c.03-.1.06-.16.09-.23.09-.18.18-.37.04-.64-.05-.1-.17-.17-.3-.17ZM27.51,18.51c-.13,0-.25.04-.33.12-.08.08-.19.36-.2.45-.11.87.06,1.87.21,2.75.04.26.09.5.12.74,0,.05,0,.1,0,.16,0,.09,0,.18.03.27l.08.31.19-.56c.25-1.07.34-2.09.31-3.41,0-.05,0-.12,0-.18,0-.11.01-.22,0-.3v-.05s-.09-.07-.09-.07c.02,0,.03-.05,0-.09-.04-.05-.24-.11-.24-.11h-.1ZM26.28,20.8c-.08.09-.12.13-.15.18-.11.14-.24.29-.17.53v.05s.1.04.1.04c.08.23.22.51.37.8.08.15.16.3.23.45l.31.31v-.23c.03-.73-.16-1.48-.51-2.11l-.04-.07-.15.04ZM16.33,19.96c-.14,0-.25.1-.3.28-.04.13-.06.36.06.45.04.03.11.04.2.04.06,0,.35,0,.4-.16.04-.17.03-.37-.09-.48-.09-.08-.18-.12-.26-.12ZM22.24,16.61c-.16,0-.3,0-.41.01-1.01.07-1.6.61-1.82,1.63-.11.49,0,.98.27,1.39.3.43.78.72,1.31.8.07.01.57.06.66.06.56-.11,1.16-.28,1.57-.82.63-.83.61-1.85-.06-2.61-.03-.06-.05-.11-.1-.16-.27-.25-.93-.31-1.43-.31ZM32.84,16.32c-.38,0-.92.18-1.15.35-.77.55-1.06,1.32-.81,2.11.28.87,1.16,1.53,2.05,1.53.46,0,.89-.17,1.26-.5.53-.47.72-1.14.54-1.84-.2-.77-.83-1.37-1.59-1.54-.09-.08-.18-.1-.3-.1ZM20.86,14.94s0,0,.03.02c1.36.48,2.73.91,4.04,1.14.68.12,1.35.19,2.02.19.96,0,1.87-.13,2.7-.39.53-.16,1.02-.35,1.51-.54.77-.29,1.49-.57,2.31-.74.04,0,.09-.01.14-.01.17,0,.4-.02.48-.25v-.02s0,.02,0,.02l.6.1.78-.1v-.2c-.08,0-.15-.03-.22-.05-.09-.03-.19-.06-.31-.06h-.07c-.07.01-.13.03-.17.05l-.15.02c-.26,0-.45,0-.45.15l-.04-.03s-.08,0-.12,0c-.23,0-.54.05-.6.06-.82.15-1.65.44-2.45.73-.77.27-1.57.55-2.34.7-.46.09-.96.13-1.49.13-1.79,0-3.7-.5-5.38-.95l-.56-.15c-.1-.05-.18-.08-.25-.08h-.01l-.08-.06h-.27s0,.26,0,.26h.2v.11s.13-.05.13-.05h.03ZM26.85,14.17c0,.07,0,.13-.03.2-.03.08-.05.17-.04.29,0,.05.03.1.04.14.03.07.05.11.03.16l-.04.13h.17s.12-.02.12-.02c.13-.08.08-.62.08-.62-.03-.22-.09-.35-.2-.38l-.15-.05.02.16ZM25.92,14.18c-.1.22-.08.42.04.63,0,0,.09.15.2.15h.05l.06-.07v-.1c.01-.19.02-.33-.14-.51-.05-.07-.08-.12-.15-.12h-.03l-.03.02ZM27.9,14c-.08,0-.19.05-.26.26-.07.18-.11.51,0,.61l.03.03h.12s.06-.04.06-.04l.03-.03v-.09c.05-.06.1-.12.12-.2.03-.13.02-.27.02-.39v-.1s-.11-.05-.11-.05ZM28.99,13.9c-.14.17-.36.61-.13.83l.16-.11c.15-.28.16-.46.14-.67l-.02-.24-.16.19ZM24.52,14.04c-.07.07-.11.24-.1.31.01.12.14.35.32.35l.05-.02.09-.07c.04-.18-.02-.29-.07-.4-.02-.04-.05-.09-.06-.15l-.02-.07h-.14s-.06.04-.06.04ZM30.07,13.99c-.08,0-.17.05-.22.13-.04.07-.14.26-.07.4.02.04.07.1.18.1h.08s.02-.08.02-.08c.01-.06.04-.12.07-.19.02-.05.04-.09.06-.14l.02-.05-.03-.11-.03-.04-.09-.02ZM21.48,13.92c-.1.21-.03.31.03.41l.04.07.12.06.05-.02.1-.08c.05-.18.02-.3-.04-.44l-.03-.06h-.25l-.03.05ZM31.03,13.87l-.02.07s-.1.34.02.46l.03.03.07.02h.06l.06-.09s.22-.31.12-.44l-.03-.04h-.32ZM18.61,14.12c-.12,0-.19.04-.23.13l-.06.13h.14c.11.04.16.05.21.05h0c.12,0,.19-.07.2-.2v-.12s-.11.01-.11.01h-.15ZM35.91,14.33c.69-.06,1.26-.14,1.82-.4.1-.03.15-.05.21-.09l.05-.04-.04-.18-.13-.02-.02-.03-.12-.05-.17-.04c-.45-.1-.95-.22-1.33-.38h-.02s-.21-.04-.21-.04c-.06-.03-.13-.06-.2-.06h-.04l-.08.05s-.05.08-.05.13v.07s1.49.53,1.49.53h0c-.07,0-.18.05-.21.06-.18.06-.32.06-.47.06h-.02c-.19,0-.29,0-.4.02,0,0-.37.08-.42.23l-.02.06.06.07.03.02h.09s.21,0,.21,0ZM16.89,13.76v.12c.08.07.14.09.18.1.03.05.09.07.13.08h.11c.19,0,.21-.01.23-.02l.15-.32c.07.08.16.08.19.08.07,0,.16-.03.32-.07.47-.12.87-.25,1.28-.38.26-.08.52-.17.78-.25.48-.14.98-.28,1.47-.42.73-.21,1.45-.42,2.13-.62,1.42-.43,3.03-.68,4.31-.68.36,0,.7.02,1.01.06.04,0,.09,0,.13,0,.06,0,.3-.01.36-.01.04,0,.07,0,.11,0,.04,0,.08.02.12.03.07.02.15.05.25.05.04,0,.09,0,.13-.02l.07-.02v-.09c0-.09-.11-.17-.13-.18-.29-.19-.79-.29-1.53-.29-.36,0-.72.02-1.01.04h-.25c-1.95.12-3.41.57-5.1,1.1l-.5.15c-.35.11-.7.22-1.05.34-.71.23-1.39.45-2.02.61l-.17.04c-.21.05-.39.09-.61.19-.06.03-.1.05-.14.08-.04.03-.08.05-.13.07l-.1.04h-.65l-.09.16ZM22.19,13.04c0,.15,0,.28.07.35l.03.03.08.02h.03l.08-.03c.19-.11.1-.26.07-.32l.03-.12-.15-.06h-.23s0,.14,0,.14ZM27.55,12.81s-.03.07-.04.11c-.05.1-.1.22-.02.4l.05.1.09-.07c.08-.05.26-.26.24-.4v-.07s-.1-.04-.1-.04c0-.03-.04-.09-.11-.1l-.09-.02-.02.09ZM29.99,12.81c-.12.17-.12.28,0,.45l.1.14.25-.5-.29-.16-.05.07ZM31.13,12.38c-.2.13-.29.38-.26.72v.09s.1,0,.1,0c.24,0,.37-.37.37-.58,0-.22-.11-.24-.15-.25h-.03s-.03.01-.03.01ZM26.71,12.4c0,.06,0,.13,0,.2,0,.05,0,.1,0,.15v.07s.06.03.06.03c0,0,0,0,.01,0,.21,0,.26-.26.26-.26,0-.07-.02-.13-.04-.17v-.04s-.05-.09-.05-.09l-.03-.03-.07-.02h-.09l-.04.15ZM15.18,29.77c-.01-.06-.03-.12-.03-.17-.03-.48.12-1.14.24-1.63l.03-.17c.03-.1.32-.18.67-.18.17,0,.24.02.26.03-.1.14-.17.29-.25.44-.19.37-.39.76-.48,1.12-.05.1-.08.18-.05.25v.04s.08.05.08.05l-.12-.03-.1.07c-.02.06-.14.23-.22.31,0-.05-.02-.09-.03-.13ZM34.45,22.82c-.07,0-.11-.14-.13-.2-.02-.06-.04-.12-.06-.16-.15-.3-.36-.36-.51-.36-.14-.1-.13-.36-.13-.58.08-.05.13-.06.16-.06.02,0,.03.03.06.13.02.07.04.15.08.22.07.11.22.17.41.17s.42-.07.49-.22c.03-.07.09-.2-.04-.27l-.06-.11s0-.05,0-.09c0-.04,0-.08,0-.12,0,0,.01.01.02.01.04,0,.1-.03.12-.04.02,0,.09.15.13.21.09.16.18.33.34.33.08-.01.26-.14.28-.19.09-.26-.11-.39-.26-.49-.12-.08-.2-.14-.2-.21.02-.03.21-.11.26-.11h0c.17,0,.24.11.34.28.09.15.19.33.4.33.05,0,.1,0,.15-.03.03-.01.05-.02.23-.24.05-.06.09-.11.11-.12.03-.16-.17-.35-.2-.37-.07-.04-.13-.06-.2-.07-.09-.03-.17-.05-.25-.13-.05-.05-.04-.1-.03-.14.03-.07.1-.12.17-.12l.32.29.58.26.03-.12h.03s.07-.02.07-.02c.13-.09.23-.31.17-.48-.04-.1-.2-.19-.55-.34-.1-.05-.2-.09-.24-.11-.03-.02-.1-.1-.11-.13,0,0,0,0,0,0,.02,0,.04-.04.06-.07.05-.06.07-.1.13-.11.09.13.29.2.49.27.03.02.06.07.11.09.04,0,.1.01.15.01.13,0,.22-.01.26-.03.05-.03.17-.21.18-.23.03-.07.04-.18.05-.28,0-.06.01-.11.02-.15.05-.1.09-.17.06-.27l-.02-.06h-.07c-.13-.02-.27-.03-.41-.03s-.27,0-.39.03c-.05,0-.09.03-.13.04s-.06.03-.1.03c-.02,0-.09-.09-.1-.11-.02-.05.05-.18.08-.19.04,0,.09,0,.14,0,.08,0,.16,0,.24.01.09,0,.18.01.26.01.21,0,.48-.03.66-.26l.02-.03v-.09s.08-.06.1-.08l.04.04c.12.12.27.27.24.4-.09.1-.14.15-.18.21-.12.14-.26.32-.02.59l.25.17c-.03.08-.1.1-.22.14-.05.01-.1.03-.15.05-.19.08-.23.3-.25.38.05.19.14.27.23.34.04.03.08.06.11.1,0,0-.43,0-.43,0-.05,0-.28.15-.3.21-.05.15.03.44.06.53v.04s.08.04.08.04c.01.05.02.1.04.15-.02,0-.03,0-.04,0-.11,0-.17-.02-.24-.03-.08-.02-.17-.04-.26-.04-.06,0-.12,0-.17.03-.07.02-.22.16-.23.24-.02.09-.01.24,0,.39v.11s0,0,0,0c-.01,0-.04.01-.04.02,0,0-.08,0-.1,0-.08,0-.12,0-.13,0-.12-.08-.26-.09-.38-.09-.16,0-.22.02-.25.04-.07.04-.16.2-.16.2-.03.07-.06.16-.09.25-.03.09-.08.28-.12.3,0,0-.04,0-.11-.1-.11-.18-.21-.33-.37-.33-.32.06-.4.24-.47.4-.03.06-.05.11-.09.17-.01,0-.02,0-.03,0Z"/>
            </g>
          </g>
          <circle class="cls-2" cx="27.86" cy="27.86" r="20.45"/>
        </g>
      </g>
      <g>
        <path d="M19.87,48.7l-.4-.16c.14-.34.07-.57-.21-.69l-.73-.33-.37.81.3.14c.12.06.26-.06.41-.34l.34.16-.61,1.18-.33-.15c.11-.32.12-.49.01-.54l-.27-.12-.43.95.59.27c.41.19.74.04.99-.43l.38.21-.6,1.06-2.67-1.22.14-.32c.23.1.37.1.43-.02l.86-1.88c.06-.12-.04-.23-.26-.34l.14-.32,2.67,1.22-.4.87Z"/>
        <path d="M22.77,49.68l-.38-.07c.07-.51-.25-.82-.75-.96-.22-.06-.57-.12-.66.18-.11.39.72.56,1.27.96.35.25.5.58.37,1.04-.19.64-.77.84-1.44.65-.4-.12-.61-.27-.76-.42-.05-.05-.1-.09-.15-.1-.07-.02-.16.04-.22.13l-.37-.11.31-1.08.37.08c-.09.48.22.85.82,1.03.34.1.65.12.75-.23.11-.37-.55-.52-1.07-.83-.52-.31-.7-.65-.54-1.2.13-.45.55-.78,1.28-.56.39.11.6.27.75.4.05.05.08.08.13.09.12.03.17,0,.26-.09l.31.09-.29,1.02Z"/>
        <path d="M26.41,50.49l-.37-.04c.06-.64-.07-.9-.4-.94l-.29-.04-.29,2.16c-.02.13.1.21.35.25l-.05.34-1.61-.22.05-.34c.25.03.38-.01.4-.14l.29-2.16-.29-.04c-.33-.04-.52.17-.64.8l-.36-.06.18-1.29,3.21.44-.18,1.29Z"/>
        <path d="M28.43,49.17c1.08-.03,1.57.18,1.6,1.45.03,1.31-.44,1.67-1.52,1.7l-1.7.04v-.35c.24,0,.37-.07.36-.21l-.05-2.06c0-.13-.13-.19-.38-.19v-.35s1.69-.04,1.69-.04ZM27.97,49.61l.06,2.29h.53c.5-.03.6-.4.58-1.24s-.13-1.07-.64-1.06h-.53Z"/>
        <path d="M32.06,51.44c.02.12.17.16.47.11l.05.34-1.79.28-.05-.34c.35-.05.51-.14.49-.26l-.24-1.54-.56.09-.07-.32c.39-.07.64-.28.73-.63l.62-.05c0,.16.01.25.03.35l.3,1.97Z"/>
        <path d="M34.16,51.26c.43-.12.56-.37.3-1.3-.06.26-.3.46-.63.55-.52.15-.94-.12-1.09-.63-.14-.51.02-.99.92-1.24.72-.2,1.26.05,1.56,1.14.2.72.05,1.49-.87,1.75-.5.14-1.1.08-1.23-.39-.06-.21.02-.36.23-.42.21-.06.37.03.43.21.04.15-.04.28-.15.31.12.08.32.08.53.02ZM33.47,49.61c.12.43.31.52.56.46.25-.07.36-.24.25-.65-.13-.47-.3-.57-.56-.49-.25.07-.37.25-.25.68Z"/>
        <path d="M37.12,50.26c.41-.17.51-.44.13-1.33-.02.26-.24.49-.55.62-.49.21-.95,0-1.16-.48-.21-.49-.1-.99.76-1.35.68-.29,1.25-.11,1.7.93.29.68.24,1.47-.64,1.84-.47.2-1.08.22-1.27-.23-.08-.2-.02-.36.17-.45.2-.09.37-.02.45.16.06.14,0,.28-.11.33.13.06.33.04.53-.05ZM36.21,48.71c.18.42.38.48.61.38.24-.1.33-.29.16-.67-.19-.45-.37-.52-.62-.42-.24.1-.33.3-.16.71Z"/>
        <path d="M38.09,47.74c-.04-.06-.1-.16-.14-.22-.15-.26-.15-.56.19-.75.54-.31.72-.12,1.16-.37.15-.08.17-.16.18-.34.08.05.17.09.25.14-.23,1.06-.18,1.41.17,2.02.05.09.12.18.17.28.14.25.24.5-.1.7-.29.17-.53.06-.69-.22-.41-.71-.2-1.53.16-2.21-.09.13-.19.21-.29.27-.26.15-.53.1-.74.22-.12.07-.19.18-.12.38l-.2.12Z"/>
      </g>
      <g>
        <path d="M18.06,5.06c.64-.28,1.11-.37,1.4.29.17.39,0,.69-.3.9.5-.17.91-.06,1.11.38.3.69.04,1.06-.77,1.42l-1.9.84-.15-.33c.24-.11.34-.22.28-.35l-.86-1.96c-.06-.13-.21-.13-.45-.03l-.16-.36,1.8-.79ZM17.66,5.79l.36.81.42-.19c.3-.13.34-.32.2-.63-.1-.23-.28-.29-.56-.17l-.42.19ZM18.17,6.95l.43.98.53-.23c.37-.16.39-.42.26-.72-.14-.31-.35-.42-.69-.26l-.53.23Z"/>
        <path d="M21.88,4.14c-.25.07-.36.18-.32.31l.6,2.09c.04.13.19.16.44.09l.1.35-1.64.47-.1-.35c.26-.08.37-.18.33-.31l-.6-2.09c-.04-.13-.19-.16-.45-.09l-.1-.35,1.64-.47.1.35Z"/>
        <path d="M26.02,4.42l-.38.07c-.13-.66-.34-.88-.68-.83l-.3.05.34,2.26c.02.14.16.19.43.14l.06.36-1.68.26-.06-.36c.26-.04.38-.13.36-.26l-.34-2.26-.31.05c-.34.05-.47.32-.4,1l-.39.05-.21-1.35,3.36-.51.21,1.35Z"/>
        <path d="M29.94,4.43h-.39c-.02-.67-.19-.92-.54-.92h-.31s-.03,2.28-.03,2.28c0,.14.13.21.4.21v.37s-1.71-.02-1.71-.02v-.37c.27,0,.4-.06.4-.2l.03-2.29h-.31c-.35,0-.52.24-.56.91l-.39-.02.02-1.37,3.4.05-.02,1.37Z"/>
        <path d="M33.58,4.68l-.44-.06c.05-.38-.08-.6-.39-.65l-.83-.15-.17.92.34.06c.14.02.25-.13.33-.45l.39.07-.31,1.36-.38-.07c.03-.35-.01-.53-.12-.55l-.31-.06-.19,1.08.67.12c.47.08.76-.15.9-.7l.44.11-.33,1.23-3.04-.55.07-.36c.26.05.4,0,.43-.13l.38-2.14c.02-.14-.1-.23-.35-.27l.06-.36,3.04.55-.18.99Z"/>
        <path d="M37.24,7.75c-.12.33-.4.51-.86.34-.53-.19-.64-.56-.51-.91l.1-.28c.16-.43.12-.6-.19-.71l-.49-.18-.33.92c-.05.13.09.25.39.36l-.12.34-1.69-.61.12-.34c.25.09.4.07.44-.06l.74-2.04c.05-.13-.06-.24-.3-.33l.12-.34,1.99.72c.55.2,1.05.51.81,1.18-.16.43-.53.55-.85.51.26.2.37.46.2.92l-.12.33c-.05.12-.01.2.07.23.08.03.16-.01.2-.13l.07-.2.27.1-.06.18ZM35.73,4.8l-.31.86.54.2c.31.11.49.04.62-.3.09-.25.01-.44-.31-.55l-.54-.2Z"/>
        <path d="M40.63,7.81l-.37-.16c.2-.51-.06-.9-.54-1.17-.21-.12-.56-.27-.72.02-.21.37.6.75,1.07,1.29.3.34.38.71.13,1.16-.35.61-.99.68-1.63.31-.39-.22-.56-.43-.68-.62-.04-.06-.08-.11-.13-.14-.07-.04-.17,0-.26.08l-.35-.2.58-1.03.36.17c-.21.47.02.93.6,1.25.33.18.64.28.83-.06.2-.35-.44-.66-.9-1.11-.46-.44-.56-.84-.26-1.36.24-.43.75-.66,1.45-.27.37.21.55.42.67.59.04.06.07.1.12.13.11.06.18.03.29-.03l.3.17-.55.97Z"/>
      </g>
    </g>
  </g>
</svg>